<svg width="24" height="25" viewBox="0 0 24 25" fill="none" xmlns="http://www.w3.org/2000/svg">
<path fill-rule="evenodd" clip-rule="evenodd" d="M10 7.47754H14V5.47754H10V7.47754ZM10 19.4775H14V17.4775H10V19.4775ZM17 14.4775H19V10.4775H17V14.4775ZM16 17.4775V19.4775C17.654 19.4775 19 18.4775 19 16.4775H17C17 17.1495 16.552 17.4775 16 17.4775ZM5 8.47754H7C7 7.82154 7.448 7.47754 8 7.47754V5.47754C6.346 5.47754 5 6.47754 5 8.47754ZM7 16.4775H5C5 18.4775 6.346 19.4775 8 19.4775V17.4775C7.448 17.4775 7 17.1655 7 16.4775ZM5 14.4775H7V10.4775H5V14.4775ZM17.004 8.47754H19C19 6.47754 18 5.47754 16 5.47754V7.47454C16.555 7.47454 17.004 7.92354 17.004 8.47754Z" fill="#000624"/>
</svg>
