<svg width="24" height="25" viewBox="0 0 24 25" fill="none" xmlns="http://www.w3.org/2000/svg">
<path fill-rule="evenodd" clip-rule="evenodd" d="M17 16.4775C17 17.0295 16.553 17.4775 16 17.4775H13V19.4775H16C17.657 19.4775 19 18.1345 19 16.4775V13.4775H17V16.4775ZM5 8.47754V11.4775H7V8.47754C7 7.92754 7.45 7.47754 8 7.47754H11V5.47754H8C6.343 5.47754 5 6.82054 5 8.47754ZM16 5.47754H13V7.47754H16C16.553 7.47754 17 7.92554 17 8.47754V11.4775H19V8.47754C19 6.82054 17.657 5.47754 16 5.47754ZM7 16.4775V13.4775H5V16.4775C5 18.1345 6.343 19.4775 8 19.4775H11V17.4775H8C7.45 17.4775 7 17.0275 7 16.4775Z" fill="#000624"/>
</svg>
