<svg width="24" height="25" viewBox="0 0 24 25" fill="none" xmlns="http://www.w3.org/2000/svg">
<path fill-rule="evenodd" clip-rule="evenodd" d="M17.05 7.87749C16.719 7.43549 16.094 7.34649 15.651 7.67749C15.208 8.00849 15.119 8.63549 15.45 9.07649L17.25 11.4775H7.25L9.05 9.07649C9.381 8.63549 9.292 8.00849 8.85 7.67749C8.407 7.34649 7.781 7.43549 7.45 7.87749L4 12.4775L7.45 17.0765C7.647 17.3395 7.947 17.4775 8.251 17.4775C8.459 17.4775 8.67 17.4115 8.85 17.2765C9.292 16.9455 9.381 16.3185 9.05 15.8775L7.25 13.4775H17.25L15.45 15.8775C15.119 16.3185 15.208 16.9455 15.651 17.2765C15.83 17.4115 16.041 17.4775 16.249 17.4775C16.553 17.4775 16.854 17.3395 17.05 17.0765L20.5 12.4775L17.05 7.87749Z" fill="#000624"/>
</svg>
