<svg width="30" height="30" viewBox="0 0 30 30" fill="none" xmlns="http://www.w3.org/2000/svg">
<path fill-rule="evenodd" clip-rule="evenodd" d="M27 21H25V9H27V21ZM23 23H7V7H23V23ZM5 21H3V9H5V21ZM25 7H27C28.103 7 29 7.897 29 9V21C29 22.103 28.103 23 27 23H25C25 24.103 24.103 25 23 25H7C5.897 25 5 24.103 5 23H3C1.897 23 1 22.103 1 21V9C1 7.897 1.897 7 3 7H5C5 5.897 5.897 5 7 5H23C24.103 5 25 5.897 25 7ZM18.5 13.9932C19.328 13.9932 20 13.3232 20 12.4962C20 11.6702 19.328 11.0002 18.5 11.0002C17.671 11.0002 17 11.6702 17 12.4962C17 13.3232 17.671 13.9932 18.5 13.9932ZM17.6333 16.6763L16.3873 18.1653L13.7493 15.0003L9.5833 20.0003H20.4163L17.6333 16.6763Z" fill="#000624"/>
</svg>
