<svg width="30" height="30" viewBox="0 0 30 30" fill="none" xmlns="http://www.w3.org/2000/svg">
<path fill-rule="evenodd" clip-rule="evenodd" d="M6 24H24V6H6V24ZM24 26H6C4.897 26 4 25.103 4 24V6C4 4.897 4.897 4 6 4H24C25.103 4 26 4.897 26 6V24C26 25.103 25.103 26 24 26ZM19 9C20.104 9 21 9.894 21 10.995C21 12.098 20.104 12.99 19 12.99C17.896 12.99 17 12.098 17 10.995C17 9.894 17.896 9 19 9ZM16.6652 18.7977L18.1602 17.0117L21.5002 20.9997H8.5002L13.4992 14.9997L16.6652 18.7977Z" fill="#000624"/>
</svg>
