<svg width="30" height="30" viewBox="0 0 30 30" fill="none" xmlns="http://www.w3.org/2000/svg">
<path fill-rule="evenodd" clip-rule="evenodd" d="M5.53247 13.4721L9.48218 17.3255C9.97414 17.8034 10.1971 18.4938 10.0801 19.1691L9.1482 24.6105L14.0348 22.0396C14.6388 21.723 15.3597 21.722 15.9657 22.0406L20.8523 24.6105L19.9194 19.1671C19.8024 18.4938 20.0254 17.8034 20.5174 17.3255L24.4671 13.4721L19.0055 12.6776C18.3305 12.5794 17.7466 12.1546 17.4426 11.5425L14.9998 6.58595L12.557 11.5414C12.253 12.1546 11.669 12.5794 10.9941 12.6776L5.53247 13.4721ZM8.53325 26.9991C8.21627 26.9991 7.90029 26.8999 7.63131 26.7035C7.15335 26.3558 6.91937 25.7787 7.01936 25.1966L8.10928 18.8294L3.46662 14.2526C3.04365 13.8388 2.89466 13.2347 3.07565 12.6726C3.25864 12.1115 3.7336 11.7088 4.31656 11.6236L10.7071 10.6948L13.6209 4.85764C13.8819 4.32863 14.4098 4 14.9998 4C15.5897 4 16.1177 4.32863 16.3787 4.85864L19.2355 10.6527L25.682 11.6236C26.2659 11.7088 26.7409 12.1115 26.9239 12.6726C27.1059 13.2347 26.9559 13.8388 26.5339 14.2516L21.9113 18.7613L22.9812 25.1966C23.0802 25.7787 22.8462 26.3558 22.3682 26.7035C21.8913 27.0512 21.2703 27.0972 20.7483 26.8197L15.0348 23.814L9.24919 26.8207C9.02321 26.9399 8.77723 26.9991 8.53325 26.9991Z" fill="#000624"/>
</svg>
