<svg width="30" height="30" viewBox="0 0 30 30" fill="none" xmlns="http://www.w3.org/2000/svg">
<path fill-rule="evenodd" clip-rule="evenodd" d="M4 14C4 8.49 8.49 4 14 4C19.17 4 23.45 7.96 23.95 13H25.96C25.45 6.85 20.28 2 14 2C7.38 2 2 7.38 2 14C2 20.28 6.85 25.45 13 25.96V23.95C7.96 23.45 4 19.17 4 14ZM12 18L17.914 14.057C17.955 14.029 17.955 13.969 17.914 13.941L12 10V18ZM20.519 16.4287C22.454 14.5237 25.606 14.5217 27.543 16.4287C28.482 17.3547 29 18.5897 29 19.9077C29 21.2257 28.482 22.4607 27.542 23.3867L26.268 24.6417L24.864 23.2167L26.14 21.9607C26.694 21.4147 27 20.6857 27 19.9077C27 19.1297 26.694 18.4007 26.14 17.8547C24.976 16.7077 23.084 16.7077 21.922 17.8547L20.645 19.1087L19.243 17.6817L20.519 16.4287ZM22.0781 26.1455C20.9161 27.2915 19.0241 27.2915 17.8601 26.1455C17.3061 25.5995 17.0001 24.8705 17.0001 24.0915C17.0001 23.3145 17.3061 22.5845 17.8601 22.0395L19.1361 20.7835L17.7321 19.3585L16.4581 20.6135C15.5171 21.5395 15.0001 22.7745 15.0001 24.0915C15.0001 25.4105 15.5171 26.6455 16.4571 27.5715C17.4261 28.5245 18.6981 29.0005 19.9701 29.0005C21.2421 29.0005 22.5141 28.5245 23.4811 27.5715L24.7571 26.3185L23.3551 24.8915L22.0781 26.1455ZM20.8844 24.5959L19.4814 23.1709L23.3534 19.3579L24.7564 20.7829L20.8844 24.5959Z" fill="#000624"/>
</svg>
