<svg width="30" height="30" viewBox="0 0 30 30" fill="none" xmlns="http://www.w3.org/2000/svg">
<path fill-rule="evenodd" clip-rule="evenodd" d="M21.653 15.43C24.259 13.427 25.979 11.37 26.757 9.293C26.918 8.858 27 8.4 27 7.934C27 5.765 25.223 4 23.037 4C21.762 4 20.556 4.617 19.812 5.65C19.435 6.172 18.566 6.172 18.189 5.65C17.444 4.617 16.238 4 14.963 4C12.778 4 11 5.765 11 7.934C11 7.9559 11.0028 7.97748 11.0057 7.9991C11.0079 8.01599 11.0101 8.0329 11.011 8.05C11.336 8.018 11.666 8 12 8C16.624 8 20.514 11.159 21.653 15.43ZM12 26C16.068 26 19.429 22.945 19.929 19.012C19.971 18.68 20 18.344 20 18C20 17.551 19.954 17.112 19.882 16.684C19.251 12.897 15.962 10 12 10C11.8984 10 11.7983 10.0069 11.6982 10.0137C11.6555 10.0167 11.6128 10.0196 11.57 10.022C10.868 10.06 10.189 10.182 9.545 10.389C6.332 11.429 4 14.445 4 18C4 22.411 7.589 26 12 26ZM19 3.569C20.091 2.571 21.532 2 23.037 2C26.325 2 29 4.662 29 7.934C29 8.639 28.876 9.33 28.631 9.991C27.616 12.699 25.425 15.222 21.984 17.666C21.9849 17.7177 21.9884 17.769 21.9919 17.8203C21.9959 17.88 22 17.9397 22 18C22 23.514 17.514 28 12 28C6.486 28 2 23.514 2 18C2 13.515 4.97 9.71 9.046 8.446C9.04089 8.39142 9.03436 8.33704 9.02783 8.28271L9.02783 8.28268L9.02782 8.28265C9.0139 8.16677 9 8.05108 9 7.934C9 4.662 11.675 2 14.963 2C16.468 2 17.909 2.571 19 3.569ZM8.0002 17.25C8.6902 17.25 9.2502 16.69 9.2502 16C9.2502 15.31 8.6902 14.75 8.0002 14.75C7.3102 14.75 6.7502 15.31 6.7502 16C6.7502 16.69 7.3102 17.25 8.0002 17.25ZM17.2502 16C17.2502 16.69 16.6902 17.25 16.0002 17.25C15.3102 17.25 14.7502 16.69 14.7502 16C14.7502 15.31 15.3102 14.75 16.0002 14.75C16.6902 14.75 17.2502 15.31 17.2502 16ZM8.0002 19C8.0002 21.209 9.7912 23 12.0002 23C14.2092 23 16.0002 21.209 16.0002 19H8.0002Z" fill="#000624"/>
</svg>
