<svg width="16" height="16" viewBox="0 0 16 16" fill="none" xmlns="http://www.w3.org/2000/svg">
<path fill-rule="evenodd" clip-rule="evenodd" d="M3 7.00012H13C13.479 7.00012 13.892 6.66012 13.982 6.18912C14.072 5.71912 13.816 5.25012 13.371 5.07112L3.372 1.07112C3.063 0.949117 2.715 0.987117 2.439 1.17212C2.165 1.35812 2 1.66812 2 2.00012V6.00012C2 6.55312 2.448 7.00012 3 7.00012ZM13.371 10.9288C13.816 10.7498 14.072 10.2818 13.982 9.81076C13.891 9.33976 13.479 8.99976 13 8.99976H3C2.448 8.99976 2 9.44776 2 9.99976V13.9998C2 14.3318 2.164 14.6418 2.439 14.8288C2.714 15.0128 3.063 15.0508 3.371 14.9288L13.371 10.9288Z" fill="#000624"/>
</svg>
