<svg width="16" height="16" viewBox="0 0 16 16" fill="none" xmlns="http://www.w3.org/2000/svg">
<path fill-rule="evenodd" clip-rule="evenodd" d="M10.929 2.6288C10.75 2.1838 10.282 1.9278 9.811 2.0178C9.34 2.1088 9 2.5208 9 2.9998V12.9998C9 13.5528 9.448 13.9998 10 13.9998H14C14.332 13.9998 14.642 13.8358 14.829 13.5608C15.013 13.2858 15.051 12.9368 14.929 12.6288L10.929 2.6288ZM7.00048 13.0002V3.00016C7.00048 2.52116 6.66048 2.10816 6.18948 2.01816C5.71948 1.92816 5.25048 2.18416 5.07148 2.62916L1.07148 12.6282C0.949483 12.9372 0.987483 13.2852 1.17248 13.5612C1.35848 13.8352 1.66848 14.0002 2.00048 14.0002H6.00048C6.55348 14.0002 7.00048 13.5522 7.00048 13.0002Z" fill="#000624"/>
</svg>
