<svg width="16" height="16" viewBox="0 0 16 16" fill="none" xmlns="http://www.w3.org/2000/svg">
<path fill-rule="evenodd" clip-rule="evenodd" d="M8.00051 10C6.89651 10 6.00051 9.104 6.00051 8C6.00051 6.896 6.89651 6 8.00051 6C9.10451 6 10.0005 6.896 10.0005 8C10.0005 9.104 9.10451 10 8.00051 10ZM13.2505 9.323L12.3875 8.821C12.4365 8.554 12.4655 8.281 12.4655 8C12.4655 7.719 12.4365 7.446 12.3875 7.179L13.2505 6.677C13.6085 6.468 13.7315 6.006 13.5245 5.645L12.7865 4.355C12.5795 3.994 12.1205 3.87 11.7625 4.079L10.8985 4.581C10.4865 4.226 10.0105 3.948 9.48851 3.761V2.756C9.48851 2.338 9.15251 2 8.73851 2H7.26251C6.84851 2 6.51251 2.338 6.51251 2.756V3.761C5.99051 3.948 5.51451 4.226 5.10251 4.581L4.23851 4.079C3.88051 3.87 3.42151 3.994 3.21451 4.355L2.47651 5.645C2.26951 6.006 2.39251 6.468 2.75051 6.677L3.61351 7.179C3.56451 7.446 3.53551 7.719 3.53551 8C3.53551 8.281 3.56451 8.554 3.61351 8.821L2.75051 9.323C2.39251 9.532 2.26951 9.994 2.47651 10.355L3.21451 11.645C3.42151 12.006 3.88051 12.13 4.23851 11.921L5.10251 11.419C5.51451 11.774 5.99051 12.052 6.51251 12.238V13.244C6.51251 13.662 6.84851 14 7.26251 14H8.73651C9.15251 14 9.48851 13.661 9.48851 13.242V12.238C10.0105 12.052 10.4865 11.774 10.8985 11.419L11.7625 11.921C12.1205 12.13 12.5795 12.006 12.7865 11.645L13.5245 10.355C13.7315 9.994 13.6085 9.532 13.2505 9.323Z" fill="#000624"/>
</svg>
