<svg width="30" height="30" viewBox="0 0 30 30" fill="none" xmlns="http://www.w3.org/2000/svg">
<path fill-rule="evenodd" clip-rule="evenodd" d="M12.889 16.002C10.735 16.061 9 17.832 9 20C9 20.342 9.057 20.668 9.138 20.985H6V7H17.001L17 13.016C15.127 13.097 13.521 14.283 12.889 16.002ZM21.535 16.067C21.105 14.836 20.172 13.877 19.001 13.379V7C19.001 6.466 18.792 5.964 18.413 5.585C18.035 5.208 17.534 5 17.001 5H16.997H5.996C4.896 5.002 4 5.899 4 7V20.985C4 21.52 4.209 22.022 4.588 22.4C4.966 22.777 5.468 22.985 6 22.985H6.004H10.365C11.071 23.609 11.987 24 13 24H19V22H13C11.898 22 11 21.103 11 20C11 18.898 11.898 18 13 18H14.5L14.641 17.166C14.852 15.911 15.928 15 17.201 15C18.473 15 19.549 15.911 19.76 17.166L19.901 18H24.262C23.687 17.009 22.7 16.285 21.535 16.067ZM24.9993 22V20H22.9993V22H20.9993V24H22.9993V26H24.9993V24H27.0003V22H24.9993ZM14.0003 12H9.0003V10H14.0003V12Z" fill="#000624"/>
</svg>
