<svg width="30" height="30" viewBox="0 0 30 30" fill="none" xmlns="http://www.w3.org/2000/svg">
<path fill-rule="evenodd" clip-rule="evenodd" d="M17.5586 15.6584L18.9726 17.0734L20.3436 15.7034C22.5596 13.4864 22.5596 9.87937 20.3436 7.66238C18.1266 5.44538 14.5186 5.44637 12.3016 7.66238L10.9316 9.03137L12.3466 10.4464L13.7156 9.07638C15.1536 7.63938 17.4916 7.63938 18.9296 9.07638C20.3666 10.5134 20.3666 12.8524 18.9296 14.2894L17.5586 15.6584ZM7.662 20.3431C8.771 21.4511 10.227 22.0051 11.683 22.0051C13.14 22.0051 14.596 21.4511 15.704 20.3421L17.074 18.9731L15.66 17.5581L14.29 18.9281C12.853 20.3651 10.515 20.3661 9.077 18.9281C7.64 17.4911 7.64 15.1521 9.077 13.7151L10.447 12.3461L9.033 10.9311L7.662 12.3011C5.446 14.5181 5.446 18.1251 7.662 20.3431ZM11.6835 17.7363L10.2695 16.3223L16.3225 10.2683L17.7365 11.6833L11.6835 17.7363ZM22.0028 21.0024V19.0024H20.0028V21.0024H18.0028V23.0024H20.0028V25.0024H22.0028V23.0024H24.0028V21.0024H22.0028Z" fill="#000624"/>
</svg>
