<svg width="30" height="30" viewBox="0 0 30 30" fill="none" xmlns="http://www.w3.org/2000/svg">
<path fill-rule="evenodd" clip-rule="evenodd" d="M12.4139 9.00026H7.99996V21.0003H15.9998V23.0003H7.99996C6.89598 23.0003 6 22.1043 6 21.0003V9.00026C6 7.89626 6.89598 7.00026 7.99996 7.00026H11.5859L13.2928 5.29325C13.6838 4.90225 14.3158 4.90225 14.7068 5.29325L16.4138 7.00026H19.9997C21.1037 7.00026 21.9996 7.89626 21.9996 9.00026V17.0003H19.9997V9.00026H15.5858L13.9998 7.41426L12.4139 9.00026ZM16.9998 14.0003H10.9999V12.0003H16.9998V14.0003ZM20.0001 21.001V19H22V21.001H24V23.001H22V25H20.0001V23.001H17.9991V21.001H20.0001ZM10.9999 18.0003H16.9998V16.0003H10.9999V18.0003Z" fill="#000624"/>
</svg>
