<svg width="30" height="30" viewBox="0 0 30 30" fill="none" xmlns="http://www.w3.org/2000/svg">
<path fill-rule="evenodd" clip-rule="evenodd" d="M8.00202 20.985H16.002V22.985H8.00602H8.00202C7.47002 22.985 6.96802 22.777 6.59002 22.4C6.21102 22.021 6.00202 21.519 6.00202 20.985L5.99902 7C5.99902 5.899 6.89502 5.002 7.99502 5H19.996H20C20.532 5 21.034 5.208 21.412 5.585C21.791 5.964 22 6.465 22 7L22.003 17H20.002L20 7H7.99902L8.00202 20.985ZM12.9996 13H10.9996V11H12.9996V13ZM16.9996 13H14.9996V11H16.9996V13ZM21.9991 20.9997V18.9997H19.9991V20.9997H17.9991V22.9997H19.9991V24.9997H21.9991V22.9997H24.0001V20.9997H21.9991ZM10.9996 17H12.9996V15H10.9996V17ZM16.9996 17H14.9996V15H16.9996V17Z" fill="#000624"/>
</svg>
