<svg width="30" height="30" viewBox="0 0 30 30" fill="none" xmlns="http://www.w3.org/2000/svg">
<path fill-rule="evenodd" clip-rule="evenodd" d="M22 18.9423C20.123 17.6523 17.808 17.7243 16 18.9673V11.7903C16.721 10.6773 17.772 10.0233 18.925 9.99626C18.95 9.99526 18.976 9.99526 19.002 9.99526C20.178 9.99526 21.27 10.6453 22 11.7833V18.9423ZM11.031 18.0093C9.989 18.0093 8.938 18.3313 8 19.0003L7.992 11.7883C8.746 10.6203 9.843 9.96526 11.075 9.99626C12.228 10.0233 13.279 10.6773 14 11.7903V18.9523C13.098 18.3353 12.07 18.0093 11.031 18.0093ZM23.687 10.7033C22.547 8.93826 20.816 7.95026 18.877 7.99626C17.397 8.03226 16.039 8.67826 15 9.81026C13.961 8.67826 12.603 8.03226 11.123 7.99626C9.157 7.95826 7.453 8.93826 6.312 10.7043C6.107 11.0213 6 11.3943 6 11.7833V19.0003C6 19.7393 6.388 20.3853 7.036 20.7263C7.699 21.0753 8.503 21.0233 9.133 20.5903C10.629 19.5633 12.517 19.8923 13.722 21.3913C14.035 21.7813 14.501 22.0053 15 22.0053C15.499 22.0053 15.965 21.7813 16.278 21.3913C17.482 19.8913 19.369 19.5613 20.867 20.5903C21.496 21.0233 22.3 21.0753 22.964 20.7263C23.612 20.3853 24 19.7393 24 19.0003V11.7833C24 11.3943 23.893 11.0213 23.687 10.7033Z" fill="#000624"/>
</svg>
