<svg width="12" height="12" viewBox="0 0 12 12" fill="none" xmlns="http://www.w3.org/2000/svg">
<g clip-path="url(#clip0_25_16)">
<path fill-rule="evenodd" clip-rule="evenodd" d="M4.66311 9.23091H6.44089C6.44089 9.22076 6.46578 8.14997 7.368 7.44381C7.55169 7.2994 7.71797 7.18082 7.87485 7.06894C7.88043 7.06496 7.886 7.06099 7.89156 7.05703L7.90113 7.05019C8.21138 6.82841 8.50552 6.61814 8.82667 6.30748C9.59378 5.5607 10 4.65699 10 3.69236C10 2.17388 8.98578 0.785551 7.47822 0.235388C7.04356 0.0766168 6.56 0 6 0C3.79378 0 2 2.07049 2 4.61546H3.77778C3.77778 3.08774 4.77422 1.84618 6 1.84618C6.35022 1.84618 6.64889 1.89049 6.88889 1.97726C7.68622 2.26803 8.22222 2.95758 8.22222 3.69236C8.22222 4.24899 7.88978 4.68838 7.61067 4.95885C7.38489 5.17854 7.16444 5.33639 6.88533 5.53485C6.704 5.66409 6.51022 5.80255 6.29689 5.96963C4.68178 7.23519 4.66311 9.14968 4.66311 9.23091ZM4.66745 10.1538L4.66656 12H6.44434V10.1538H4.66745Z" fill="#000624"/>
</g>
<defs>
<clipPath id="clip0_25_16">
<rect width="12" height="12" fill="white"/>
</clipPath>
</defs>
</svg>
