<svg width="20" height="20" viewBox="0 0 20 20" fill="none" xmlns="http://www.w3.org/2000/svg">
<path fill-rule="evenodd" clip-rule="evenodd" d="M9.25 11.0381H10.75C11.439 11.0381 12 11.5991 12 12.2881V14.7501C12 14.8171 12.026 14.8801 12.073 14.9281C12.101 14.9541 12.159 15.0001 12.249 15.0001H12.25L14.75 14.9991C14.887 14.9991 15 14.8861 15 14.7481V9.31912C15 9.17111 14.935 9.03012 14.819 8.93411L10.158 5.05812C10.064 4.97912 9.932 4.97912 9.838 5.05812L5.181 8.93312C5.065 9.02812 5 9.16811 5 9.31611V14.7481C5 14.8861 5.112 14.9991 5.25 14.9991L7.749 15.0001H7.75C7.841 15.0001 7.899 14.9541 7.927 14.9281C7.974 14.8801 8 14.8171 8 14.7501V12.2881C8 11.5991 8.561 11.0381 9.25 11.0381ZM12.248 16.0001C11.916 16.0001 11.603 15.8701 11.367 15.6361C11.13 15.3991 11 15.0851 11 14.7501V12.2881C11 12.1501 10.888 12.0381 10.75 12.0381H9.25C9.112 12.0381 9 12.1501 9 12.2881V14.7501C9 15.0851 8.87 15.3991 8.633 15.6361C8.396 15.8701 8.13 15.9961 7.748 16.0001L5.249 15.9991C4.56 15.9971 4 15.4361 4 14.7481V9.31611C4 8.86911 4.197 8.44811 4.542 8.16312L9.199 4.28811C9.663 3.90312 10.336 3.90211 10.798 4.28911L15.459 8.16611C15.803 8.45311 16 8.87312 16 9.31912V14.7491C15.998 15.4371 15.438 15.9971 14.751 15.9991L12.251 16.0001H12.248Z" fill="#000624"/>
</svg>
