<svg width="20" height="20" viewBox="0 0 20 20" fill="none" xmlns="http://www.w3.org/2000/svg">
<path fill-rule="evenodd" clip-rule="evenodd" d="M11.002 12.4814V14.4724C11.002 15.0254 11.45 15.4724 12.002 15.4724L15 15.4704C15.552 15.4704 15.999 15.0224 15.999 14.4704V9.8044C15.999 9.4334 15.834 9.0824 15.549 8.8434L10.637 4.7584C10.267 4.4504 9.72898 4.4504 9.35798 4.7584L4.45098 8.8404C4.16598 9.0784 4.00098 9.43041 4.00098 9.8014V14.4704C4.00098 15.0224 4.44798 15.4704 4.99998 15.4704L7.98498 15.4724C8.53798 15.4724 8.98598 15.0254 8.98598 14.4724V12.4814C8.98598 11.9244 9.43798 11.4734 9.99398 11.4734C10.551 11.4734 11.002 11.9244 11.002 12.4814Z" fill="#000624"/>
</svg>
