<svg width="20" height="20" viewBox="0 0 20 20" fill="none" xmlns="http://www.w3.org/2000/svg">
<path fill-rule="evenodd" clip-rule="evenodd" d="M15.0602 14.5606C14.4762 15.1446 13.5232 15.1446 12.9392 14.5606C12.3542 13.9756 12.3542 13.0246 12.9392 12.4396C13.2312 12.1476 13.6162 12.0006 13.9992 12.0006C14.3832 12.0006 14.7682 12.1476 15.0602 12.4396C15.6452 13.0246 15.6452 13.9756 15.0602 14.5606ZM11.5542 12.9986H8.44523C8.35123 12.5346 8.12623 12.0916 7.76723 11.7326C7.72823 11.6936 7.68223 11.6656 7.64123 11.6296L9.21823 8.86362C9.47223 8.94762 9.73523 8.99862 9.99923 8.99862C10.2642 8.99862 10.5272 8.94762 10.7812 8.86362L12.3582 11.6296C12.3172 11.6656 12.2712 11.6936 12.2322 11.7326C11.8722 12.0916 11.6492 12.5346 11.5542 12.9986ZM7.06023 14.5606C6.47623 15.1446 5.52323 15.1446 4.93923 14.5606C4.35423 13.9756 4.35423 13.0246 4.93923 12.4396C5.23123 12.1476 5.61623 12.0006 5.99923 12.0006C6.38323 12.0006 6.76823 12.1476 7.06023 12.4396C7.64523 13.0246 7.64523 13.9756 7.06023 14.5606ZM8.93923 5.43962C9.23123 5.14762 9.61623 5.00062 9.99923 5.00062C10.3832 5.00062 10.7682 5.14762 11.0602 5.43962C11.6452 6.02462 11.6452 6.97562 11.0602 7.56062C10.4762 8.14462 9.52323 8.14462 8.93923 7.56062C8.35423 6.97562 8.35423 6.02462 8.93923 5.43962ZM15.7672 11.7326C15.0812 11.0456 14.0932 10.8536 13.2272 11.1346L11.6482 8.36562C11.6872 8.33062 11.7302 8.30462 11.7672 8.26762C12.7422 7.29262 12.7422 5.70662 11.7672 4.73262C10.7922 3.75762 9.20623 3.75762 8.23223 4.73262C7.25723 5.70662 7.25723 7.29262 8.23223 8.26762C8.26923 8.30462 8.31223 8.33062 8.35123 8.36562L6.77223 11.1346C5.90623 10.8536 4.91823 11.0456 4.23223 11.7326C3.25723 12.7066 3.25723 14.2926 4.23223 15.2676C4.71923 15.7546 5.35923 15.9986 5.99923 15.9986C6.64023 15.9986 7.28023 15.7546 7.76723 15.2676C8.12623 14.9086 8.35123 14.4646 8.44623 13.9996H11.5532C11.6482 14.4646 11.8722 14.9086 12.2322 15.2676C12.7192 15.7546 13.3592 15.9986 13.9992 15.9986C14.6402 15.9986 15.2802 15.7546 15.7672 15.2676C16.7422 14.2926 16.7422 12.7066 15.7672 11.7326Z" fill="#000624"/>
</svg>
