<svg width="20" height="20" viewBox="0 0 20 20" fill="none" xmlns="http://www.w3.org/2000/svg">
<path fill-rule="evenodd" clip-rule="evenodd" d="M14.75 15.5H5.25C5.112 15.5 5 15.388 5 15.25V8.5H15V15.25C15 15.388 14.888 15.5 14.75 15.5ZM5.25 5.5H14.75C14.888 5.5 15 5.612 15 5.75V7.5H5V5.75C5 5.612 5.112 5.5 5.25 5.5ZM14.75 4.5H13V3.5H12V4.5H8V3.5H7V4.5H5.25C4.561 4.5 4 5.061 4 5.75V15.25C4 15.939 4.561 16.5 5.25 16.5H14.75C15.439 16.5 16 15.939 16 15.25V5.75C16 5.061 15.439 4.5 14.75 4.5ZM8 11.5H9V10.5H8V11.5ZM12 11.5H11V10.5H12V11.5ZM8 13.5H9V12.5H8V13.5ZM12 13.5H11V12.5H12V13.5Z" fill="#000624"/>
</svg>
