<svg width="20" height="20" viewBox="0 0 20 20" fill="none" xmlns="http://www.w3.org/2000/svg">
<path fill-rule="evenodd" clip-rule="evenodd" d="M16.5 9.5H14.5V10.5H16.5V14.25C16.5 14.388 16.388 14.5 16.25 14.5H10.5V13.5H9.5V14.5H3.75C3.612 14.5 3.5 14.388 3.5 14.25V10.5H5.5V9.5H3.5V5.75C3.5 5.612 3.612 5.5 3.75 5.5H9.5V6.5H10.5V5.5H16.25C16.388 5.5 16.5 5.612 16.5 5.75V9.5ZM16.25 4.5H9.5H3.75C3.061 4.5 2.5 5.061 2.5 5.75V14.25C2.5 14.939 3.061 15.5 3.75 15.5H16.25C16.939 15.5 17.5 14.939 17.5 14.25V5.75C17.5 5.061 16.939 4.5 16.25 4.5ZM9.5 9.5H10.5V7.5H9.5V9.5ZM10.5 12.5H9.5V10.5H10.5V12.5ZM6.5 10.5H8.5V9.5H6.5V10.5ZM13.5 10.5H11.5V9.5H13.5V10.5Z" fill="#000624"/>
</svg>
