<svg width="20" height="20" viewBox="0 0 20 20" fill="none" xmlns="http://www.w3.org/2000/svg">
<path fill-rule="evenodd" clip-rule="evenodd" d="M14.5 14.7505C14.5 14.8885 14.388 15.0005 14.25 15.0005H5.75C5.612 15.0005 5.5 14.8885 5.5 14.7505V7.25046C5.5 7.11246 5.612 7.00046 5.75 7.00046H8.048C8.183 7.00046 8.312 6.94646 8.406 6.84946L10.008 5.20746L11.699 6.85846C11.792 6.94946 11.918 7.00046 12.048 7.00046H14.25C14.388 7.00046 14.5 7.11246 14.5 7.25046V14.7505ZM14.25 6.00046H12.252L10.349 4.14246C10.254 4.05046 10.107 3.99146 9.994 4.00046C9.861 4.00246 9.735 4.05646 9.642 4.15146L7.837 6.00046H5.75C5.061 6.00046 4.5 6.56146 4.5 7.25046V14.7505C4.5 15.4395 5.061 16.0005 5.75 16.0005H14.25C14.939 16.0005 15.5 15.4395 15.5 14.7505V7.25046C15.5 6.56146 14.939 6.00046 14.25 6.00046ZM7.5 10.0005H12.5V9.00046H7.5V10.0005ZM12.5 13.0005H7.5V12.0005H12.5V13.0005Z" fill="#000624"/>
</svg>
