<svg width="20" height="20" viewBox="0 0 20 20" fill="none" xmlns="http://www.w3.org/2000/svg">
<path fill-rule="evenodd" clip-rule="evenodd" d="M14.9278 6.89738L13.8238 8.00238L11.9988 6.17838L13.1038 5.07338C13.1668 5.00938 13.2408 5.00038 13.2808 5.00038C13.3198 5.00038 13.3938 5.00938 13.4568 5.07338L14.9278 6.54338C14.9908 6.60738 15.0008 6.68138 15.0008 6.72038C15.0008 6.75938 14.9908 6.83438 14.9278 6.89738ZM7.43278 14.3934C7.39778 14.4284 7.35178 14.4524 7.30178 14.4614L5.12778 14.8734L5.53878 12.7004C5.54878 12.6504 5.57378 12.6044 5.60878 12.5684L11.2918 6.88538L13.1158 8.70938L7.43278 14.3934ZM15.6348 5.83638L14.1638 4.36638C13.6778 3.87738 12.8828 3.87738 12.3968 4.36638L4.89978 11.8634C4.72278 12.0424 4.60378 12.2664 4.55678 12.5134L4.00978 15.4074C3.97878 15.5694 4.03078 15.7364 4.14778 15.8534C4.24178 15.9484 4.36878 16.0004 4.50078 16.0004C4.53178 16.0004 4.56278 15.9974 4.59378 15.9914L7.48878 15.4444C7.73778 15.3964 7.96178 15.2784 8.13978 15.1004L15.6348 7.60438C16.1218 7.11738 16.1218 6.32438 15.6348 5.83638Z" fill="#000624"/>
</svg>
