<svg width="20" height="20" viewBox="0 0 20 20" fill="none" xmlns="http://www.w3.org/2000/svg">
<path fill-rule="evenodd" clip-rule="evenodd" d="M5 7.5H15V5.75C15 5.612 14.888 5.5 14.75 5.5H5.25C5.112 5.5 5 5.612 5 5.75V7.5ZM14.75 15.5C14.888 15.5 15 15.388 15 15.25V8.5H5V15.25C5 15.388 5.112 15.5 5.25 15.5H14.75ZM13 4.5H14.75C15.439 4.5 16 5.061 16 5.75V15.25C16 15.939 15.439 16.5 14.75 16.5H5.25C4.561 16.5 4 15.939 4 15.25V5.75C4 5.061 4.561 4.5 5.25 4.5H7V3.5H8V4.5H12V3.5H13V4.5ZM9.4995 12.2925L11.6465 10.1465L12.3535 10.8535L9.4995 13.7075L7.6465 11.8535L8.3535 11.1465L9.4995 12.2925Z" fill="#000624"/>
</svg>
