<svg width="20" height="20" viewBox="0 0 20 20" fill="none" xmlns="http://www.w3.org/2000/svg">
<path fill-rule="evenodd" clip-rule="evenodd" d="M5.5 11.5V4.75C5.5 4.612 5.612 4.5 5.75 4.5H14.25C14.388 4.5 14.5 4.612 14.5 4.75V11.5H5.5ZM14.5 15.25C14.5 15.388 14.388 15.5 14.25 15.5H5.75C5.612 15.5 5.5 15.388 5.5 15.25V12.5H14.5V15.25ZM14.25 3.5H5.75C5.061 3.5 4.5 4.061 4.5 4.75V15.25C4.5 15.939 5.061 16.5 5.75 16.5H14.25C14.939 16.5 15.5 15.939 15.5 15.25V4.75C15.5 4.061 14.939 3.5 14.25 3.5Z" fill="#000624"/>
</svg>
