<svg width="20" height="20" viewBox="0 0 20 20" fill="none" xmlns="http://www.w3.org/2000/svg">
<path fill-rule="evenodd" clip-rule="evenodd" d="M11.7965 14.569H17.4345V13.731H13.0225L15.3225 11.369C15.8645 10.811 16.2855 10.338 16.5845 9.95C16.8845 9.563 17.0925 9.205 17.2095 8.876C17.3265 8.546 17.3845 8.198 17.3845 7.832C17.3845 7.356 17.2745 6.938 17.0535 6.575C16.8325 6.213 16.5285 5.931 16.1405 5.731C15.7535 5.532 15.3015 5.431 14.7855 5.431C13.4935 5.431 12.4805 6.01 11.7475 7.169L12.4345 7.794C12.7435 7.26 13.0845 6.874 13.4595 6.632C13.8345 6.389 14.2725 6.269 14.7725 6.269C15.2805 6.269 15.6805 6.411 15.9725 6.694C16.2635 6.977 16.4105 7.365 16.4105 7.856C16.4105 8.157 16.3595 8.446 16.2595 8.725C16.1605 9.005 15.9895 9.302 15.7475 9.619C15.5055 9.936 15.1765 10.306 14.7595 10.731L11.7965 13.769V14.569ZM8.56543 9.569V5.569H9.56543V14.569H8.56543V10.569H3.56543V14.569H2.56543V5.569H3.56543V9.569H8.56543Z" fill="#000624"/>
</svg>
