<svg width="20" height="20" viewBox="0 0 20 20" fill="none" xmlns="http://www.w3.org/2000/svg">
<path fill-rule="evenodd" clip-rule="evenodd" d="M12.2131 12.344L11.5371 12.969C11.8791 13.528 12.3101 13.95 12.8311 14.238C13.3511 14.526 13.9201 14.669 14.5371 14.669C15.1121 14.669 15.6231 14.552 16.0681 14.319C16.5141 14.086 16.8641 13.767 17.1191 13.363C17.3731 12.959 17.5001 12.498 17.5001 11.982C17.5001 11.448 17.3511 10.986 17.0571 10.594C16.7601 10.202 16.3491 9.91401 15.8241 9.73201C16.2751 9.55701 16.6291 9.30301 16.8871 8.96901C17.1451 8.63601 17.2751 8.24801 17.2751 7.80701C17.2751 7.33101 17.1581 6.90701 16.9251 6.53201C16.6911 6.15701 16.3711 5.86301 15.9631 5.65101C15.5551 5.43801 15.0881 5.33101 14.5621 5.33101C13.4301 5.33101 12.4741 5.87301 11.6991 6.95601L12.3751 7.59401C12.9741 6.64401 13.7041 6.16901 14.5621 6.16901C15.0621 6.16901 15.4711 6.31901 15.7871 6.61901C16.1031 6.91901 16.2621 7.31101 16.2621 7.79401C16.2621 8.25201 16.0941 8.63101 15.7561 8.93201C15.4181 9.23201 14.9821 9.38101 14.4491 9.38101H13.6371V10.219H14.4491C15.0581 10.219 15.5501 10.381 15.9251 10.706C16.3001 11.032 16.4871 11.461 16.4871 11.994C16.4871 12.403 16.3951 12.744 16.2131 13.019C16.0291 13.294 15.7871 13.498 15.4871 13.631C15.1871 13.765 14.8671 13.831 14.5251 13.831C14.0581 13.831 13.6371 13.715 13.2621 13.482C12.8871 13.248 12.5371 12.869 12.2131 12.344ZM8.5 9.50021V5.50021H9.5V14.5002H8.5V10.5002H3.5V14.5002H2.5V5.50021H3.5V9.50021H8.5Z" fill="#000624"/>
</svg>
