<svg width="20" height="20" viewBox="0 0 20 20" fill="none" xmlns="http://www.w3.org/2000/svg">
<path fill-rule="evenodd" clip-rule="evenodd" d="M8.5 9.431V5.431H9.5V14.431H8.5V10.431H3.5V14.431H2.5V5.431H3.5V9.431H8.5ZM12.1877 12.181L11.5127 12.806C11.8207 13.39 12.2317 13.829 12.7437 14.124C13.2557 14.42 13.8287 14.569 14.4627 14.569C15.0627 14.569 15.5917 14.435 16.0507 14.168C16.5077 13.902 16.8657 13.537 17.1187 13.075C17.3727 12.613 17.4997 12.081 17.4997 11.481C17.4997 10.923 17.3747 10.416 17.1247 9.962C16.8747 9.508 16.5347 9.146 16.1067 8.874C15.6777 8.604 15.1917 8.468 14.6507 8.468C14.2497 8.468 13.8877 8.546 13.5627 8.7C13.2387 8.854 12.9707 9.069 12.7627 9.343L13.0877 6.269H17.0507V5.431H12.3007L11.7497 10.481H12.6377C12.8207 10.073 13.0937 9.775 13.4567 9.587C13.8187 9.4 14.1797 9.306 14.5367 9.306C14.9297 9.306 15.2717 9.4 15.5627 9.587C15.8547 9.775 16.0837 10.029 16.2497 10.35C16.4167 10.671 16.4997 11.031 16.4997 11.431C16.4997 12.115 16.3167 12.668 15.9497 13.093C15.5837 13.519 15.0917 13.731 14.4747 13.731C13.4997 13.731 12.7387 13.214 12.1877 12.181Z" fill="#000624"/>
</svg>
