<svg width="20" height="20" viewBox="0 0 20 20" fill="none" xmlns="http://www.w3.org/2000/svg">
<path fill-rule="evenodd" clip-rule="evenodd" d="M15.5552 13.444C15.2472 13.635 14.8922 13.731 14.4932 13.731C14.1012 13.731 13.7472 13.635 13.4312 13.444C13.1132 13.252 12.8662 12.99 12.6872 12.656C12.5082 12.323 12.4182 11.944 12.4182 11.519C12.4182 11.069 12.5122 10.679 12.6992 10.35C12.8872 10.021 13.1372 9.767 13.4492 9.587C13.7622 9.408 14.1092 9.319 14.4932 9.319C14.8922 9.319 15.2472 9.413 15.5552 9.6C15.8632 9.788 16.1072 10.046 16.2872 10.375C16.4662 10.705 16.5562 11.085 16.5562 11.519C16.5562 11.944 16.4662 12.323 16.2872 12.656C16.1072 12.99 15.8632 13.252 15.5552 13.444ZM12.8872 14.156C13.3412 14.431 13.8682 14.569 14.4692 14.569C15.0762 14.569 15.6112 14.433 16.0742 14.163C16.5372 13.892 16.8992 13.523 17.1622 13.056C17.4242 12.589 17.5562 12.064 17.5562 11.481C17.5562 10.89 17.4222 10.369 17.1562 9.918C16.8892 9.468 16.5352 9.119 16.0942 8.869C15.6512 8.619 15.1682 8.494 14.6422 8.494C14.2602 8.494 13.9182 8.56 13.6182 8.694C13.3182 8.828 13.0642 9.015 12.8552 9.256C13.1312 8.689 13.5432 8.102 14.0942 7.494C14.6422 6.885 15.3972 6.198 16.3552 5.431H15.0062C13.7562 6.448 12.8492 7.444 12.2872 8.419C11.7242 9.394 11.4432 10.339 11.4432 11.256C11.4432 11.923 11.5702 12.504 11.8242 13C12.0782 13.496 12.4322 13.881 12.8872 14.156ZM8.44336 9.4312V5.4312H9.44336V14.4312H8.44336V10.4312H3.44336V14.4312H2.44336V5.4312H3.44336V9.4312H8.44336Z" fill="#000624"/>
</svg>
