<svg width="20" height="20" viewBox="0 0 20 20" fill="none" xmlns="http://www.w3.org/2000/svg">
<path fill-rule="evenodd" clip-rule="evenodd" d="M10.1977 14.002C7.12769 14.002 5.34969 11.29 4.72669 10.125C4.68369 10.044 4.68369 9.955 4.72669 9.874C5.01169 9.342 5.54469 8.492 6.32369 7.723L7.84269 9.24C7.69269 9.692 7.65869 10.181 7.78869 10.67C8.00969 11.506 8.69269 12.188 9.52869 12.41C9.75269 12.469 9.97669 12.498 10.1977 12.498C10.4627 12.498 10.7187 12.446 10.9667 12.364L12.1817 13.58C11.5917 13.834 10.9357 14.002 10.1977 14.002ZM4.01169 3.996L3.30469 4.703L5.62069 7.02C4.75469 7.88 4.16369 8.815 3.84769 9.406V9.407C3.65069 9.778 3.65069 10.221 3.84769 10.593C4.55469 11.917 6.58869 14.998 10.1977 14.998C11.2427 14.998 12.1467 14.731 12.9327 14.331L14.6057 16.004L15.3127 15.297L4.01169 3.996ZM16.5473 9.4063C15.8403 8.0823 13.8073 5.0023 10.1973 5.0023C9.15229 5.0023 8.24429 5.2643 7.45829 5.6633L8.20729 6.4123C8.79729 6.1573 9.45929 5.9983 10.1973 5.9983C13.2683 5.9983 15.0453 8.7093 15.6683 9.8743C15.7113 9.9553 15.7113 10.0443 15.6683 10.1243C15.3833 10.6563 14.8563 11.5103 14.0763 12.2813L14.7813 12.9863C15.6493 12.1253 16.2313 11.1833 16.5473 10.5923C16.7443 10.2203 16.7443 9.7783 16.5473 9.4063ZM10.8709 7.5901C11.7059 7.8121 12.3869 8.4961 12.6079 9.3301C12.7369 9.8201 12.7089 10.3121 12.5609 10.7661L9.43189 7.6371C9.88689 7.4891 10.3789 7.4611 10.8709 7.5901Z" fill="#000624"/>
</svg>
