<svg width="20" height="20" viewBox="0 0 20 20" fill="none" xmlns="http://www.w3.org/2000/svg">
<path fill-rule="evenodd" clip-rule="evenodd" d="M14.75 15C14.888 15 15 14.888 15 14.75V5.25C15 5.112 14.888 5 14.75 5H5.25C5.112 5 5 5.112 5 5.25V14.75C5 14.888 5.112 15 5.25 15H14.75ZM5.25 4H14.75C15.439 4 16 4.561 16 5.25V14.75C16 15.439 15.439 16 14.75 16H5.25C4.561 16 4 15.439 4 14.75V5.25C4 4.561 4.561 4 5.25 4ZM12 9C12.552 9 13 8.553 13 8C13 7.447 12.552 7 12 7C11.448 7 11 7.447 11 8C11 8.553 11.448 9 12 9ZM11 12L9 10L6 13H14L12 11L11 12Z" fill="#000624"/>
</svg>
