<svg width="20" height="20" viewBox="0 0 20 20" fill="none" xmlns="http://www.w3.org/2000/svg">
<path fill-rule="evenodd" clip-rule="evenodd" d="M9 7.5V4.5H14.75C14.888 4.5 15 4.612 15 4.75V7.5H9ZM5 11.5H15V8.5H5V11.5ZM15 15.25C15 15.388 14.888 15.5 14.75 15.5H12V12.5H15V15.25ZM5.25 15.5C5.112 15.5 5 15.388 5 15.25V12.5H11V15.5H5.25ZM5 4.75C5 4.612 5.112 4.5 5.25 4.5H8V7.5H5V4.75ZM14.75 3.5H5.25C4.561 3.5 4 4.061 4 4.75V15.25C4 15.939 4.561 16.5 5.25 16.5H11H12H14.75C15.439 16.5 16 15.939 16 15.25V4.75C16 4.061 15.439 3.5 14.75 3.5Z" fill="#000624"/>
</svg>
