<svg width="20" height="20" viewBox="0 0 20 20" fill="none" xmlns="http://www.w3.org/2000/svg">
<path fill-rule="evenodd" clip-rule="evenodd" d="M14.75 15H5.25C5.112 15 5 14.888 5 14.75V5.25C5 5.112 5.112 5 5.25 5H11.051C11.033 5.084 11 5.161 11 5.25V7.75C11 8.439 11.561 9 12.25 9H14.75C14.839 9 14.917 8.967 15 8.949V14.75C15 14.888 14.888 15 14.75 15ZM14.75 5C14.888 5 15 5.112 15 5.25V7.75C15 7.888 14.888 8 14.75 8H12.25C12.112 8 12 7.888 12 7.75V5.25C12 5.112 12.112 5 12.25 5H14.75ZM14.75 4H5.25C4.561 4 4 4.561 4 5.25V14.75C4 15.439 4.561 16 5.25 16H14.75C15.439 16 16 15.439 16 14.75V5.25C16 4.561 15.439 4 14.75 4Z" fill="#000624"/>
</svg>
