<svg width="20" height="20" viewBox="0 0 20 20" fill="none" xmlns="http://www.w3.org/2000/svg">
<path fill-rule="evenodd" clip-rule="evenodd" d="M16.75 12.5C16.888 12.5 17 12.388 17 12.25V7.75C17 7.612 16.888 7.5 16.75 7.5H3.25C3.112 7.5 3 7.612 3 7.75V12.25C3 12.388 3.112 12.5 3.25 12.5H16.75ZM3.25 6.5H16.75C17.439 6.5 18 7.061 18 7.75V12.25C18 12.939 17.439 13.5 16.75 13.5H3.25C2.561 13.5 2 12.939 2 12.25V7.75C2 7.061 2.561 6.5 3.25 6.5ZM7.001 10.5H5V9.5H7.001V10.5ZM11 10.5H9V9.5H11V10.5ZM13 10.5H15V9.5H13V10.5Z" fill="#000624"/>
</svg>
