<svg width="20" height="20" viewBox="0 0 20 20" fill="none" xmlns="http://www.w3.org/2000/svg">
<path fill-rule="evenodd" clip-rule="evenodd" d="M10 15.75C10 15.891 9.89 16 9.75 16H4.25C4.11 16 4 15.891 4 15.75V10.25C4 10.109 4.11 10 4.25 10H6V12.75C6 13.439 6.56 14 7.25 14H10V15.75ZM13 12.75C13 12.891 12.89 13 12.75 13H7.25C7.11 13 7 12.891 7 12.75V7.25C7 7.109 7.11 7 7.25 7H9V9.75C9 9.84 9.01 9.92 9.03 10C9.13 10.49 9.51 10.87 10 10.97C10.08 10.99 10.16 11 10.25 11H13V12.75ZM16 9.75C16 9.891 15.89 10 15.75 10H10.97H10.45H10.25C10.11 10 10 9.891 10 9.75V9.55V9.029V4.25C10 4.109 10.11 4 10.25 4H15.75C15.89 4 16 4.109 16 4.25V9.75ZM15.75 3H10.25C9.56 3 9 3.561 9 4.25V6H7.25C6.56 6 6 6.561 6 7.25V9H4.25C3.56 9 3 9.561 3 10.25V15.75C3 16.439 3.56 17 4.25 17H9.75C10.44 17 11 16.439 11 15.75V14H12.75C13.44 14 14 13.439 14 12.75V11H15.75C16.44 11 17 10.439 17 9.75V4.25C17 3.561 16.44 3 15.75 3Z" fill="#000624"/>
</svg>
