<svg width="20" height="20" viewBox="0 0 20 20" fill="none" xmlns="http://www.w3.org/2000/svg">
<path fill-rule="evenodd" clip-rule="evenodd" d="M4.5 10C4.5 13.032 6.967 15.5 10 15.5C13.033 15.5 15.5 13.032 15.5 10C15.5 6.968 13.033 4.5 10 4.5C6.967 4.5 4.5 6.968 4.5 10ZM3.5 10C3.5 6.416 6.416 3.5 10 3.5C13.584 3.5 16.5 6.416 16.5 10C16.5 13.584 13.584 16.5 10 16.5C6.416 16.5 3.5 13.584 3.5 10ZM11.0425 9.9995L8.8965 7.8535L9.6035 7.1465L12.4575 9.9995L9.6035 12.8535L8.8965 12.1465L11.0425 9.9995Z" fill="#000624"/>
</svg>
