<svg width="20" height="20" viewBox="0 0 20 20" fill="none" xmlns="http://www.w3.org/2000/svg">
<path fill-rule="evenodd" clip-rule="evenodd" d="M13.8238 8.00265L14.9288 6.89765C15.0258 6.79965 15.0258 6.64065 14.9278 6.54365L13.4578 5.07365C13.3608 4.97565 13.2008 4.97465 13.1038 5.07365L11.9988 6.17765L13.8238 8.00265ZM11.2918 6.88465L9.44278 8.73465L11.2678 10.5587L13.1168 8.70965L11.2918 6.88465ZM14.1648 4.36665L15.6358 5.83665C16.1218 6.32465 16.1218 7.11765 15.6358 7.60365L11.9738 11.2656L15.3548 14.6466L14.6478 15.3537L4.64778 5.35365L5.35478 4.64665L8.73578 8.02765L12.3968 4.36665C12.8848 3.87765 13.6768 3.87865 14.1648 4.36665ZM7.30278 14.4618C7.35078 14.4537 7.39778 14.4287 7.43178 14.3937L9.85478 11.9717L10.5608 12.6787L8.13978 15.0997C7.96278 15.2778 7.73878 15.3967 7.49078 15.4447L4.59378 15.9917C4.56278 15.9977 4.53278 15.9998 4.50078 15.9998C4.36878 15.9998 4.24278 15.9487 4.14778 15.8538C4.03078 15.7367 3.97878 15.5697 4.00978 15.4077L4.55678 12.5138C4.60378 12.2657 4.72278 12.0407 4.90078 11.8627L7.32278 9.44075L8.02978 10.1477L5.60878 12.5687C5.57378 12.6047 5.54878 12.6507 5.53878 12.7007L5.12778 14.8727L7.30278 14.4618Z" fill="#000624"/>
</svg>
