<svg width="20" height="20" viewBox="0 0 20 20" fill="none" xmlns="http://www.w3.org/2000/svg">
<path fill-rule="evenodd" clip-rule="evenodd" d="M10.9991 10.9635C10.9331 11.0295 10.8871 11.1145 10.8661 11.2075L10.3671 13.4745L6.51909 9.62549L8.86509 9.09049C8.95709 9.06949 9.04109 9.02349 9.10709 8.95649L12.5251 5.53749L14.4621 7.47449L10.9991 10.9635ZM15.5191 7.12249C15.5191 7.12149 11.8941 3.49649 11.8941 3.49649L11.1881 4.19949L11.8211 4.83249L8.50409 8.15149L5.68709 8.79349L5.14509 8.25249L4.44209 8.95549L7.39209 11.9045L3.49609 15.8005L4.19909 16.5035L8.09509 12.6085L11.0431 15.5565L11.7461 14.8535L11.2031 14.3105L11.8081 11.5625L15.1671 8.17849L15.7981 8.81049L16.5031 8.10749L15.5191 7.12249Z" fill="#000624"/>
</svg>
