<svg width="20" height="20" viewBox="0 0 20 20" fill="none" xmlns="http://www.w3.org/2000/svg">
<path fill-rule="evenodd" clip-rule="evenodd" d="M15.5 10C15.5 6.968 13.033 4.5 10 4.5C6.967 4.5 4.5 6.968 4.5 10C4.5 13.032 6.967 15.5 10 15.5C13.033 15.5 15.5 13.032 15.5 10ZM16.5 10C16.5 13.584 13.584 16.5 10 16.5C6.416 16.5 3.5 13.584 3.5 10C3.5 6.416 6.416 3.5 10 3.5C13.584 3.5 16.5 6.416 16.5 10ZM8.9575 10.0005L11.1035 12.1465L10.3965 12.8535L7.5425 10.0005L10.3965 7.1465L11.1035 7.8535L8.9575 10.0005Z" fill="#000624"/>
</svg>
