<svg width="20" height="20" viewBox="0 0 20 20" fill="none" xmlns="http://www.w3.org/2000/svg">
<path fill-rule="evenodd" clip-rule="evenodd" d="M10.2447 6.40601H7.96973V9.68101H10.2447C10.7937 9.68101 11.2247 9.53501 11.5377 9.24401C11.8497 8.95201 12.0067 8.55201 12.0067 8.04401C12.0067 7.52701 11.8497 7.12501 11.5377 6.83801C11.2247 6.55001 10.7937 6.40601 10.2447 6.40601ZM7.96973 14.469H6.96973V5.53101H10.2447C10.8027 5.53101 11.2897 5.63501 11.7067 5.84401C12.1237 6.05201 12.4477 6.34401 12.6827 6.71801C12.9147 7.09301 13.0317 7.53501 13.0317 8.04401C13.0317 8.54401 12.9147 8.98101 12.6827 9.35601C12.4477 9.73101 12.1237 10.025 11.7067 10.237C11.2897 10.45 10.8027 10.556 10.2447 10.556H7.96973V14.469Z" fill="#000624"/>
</svg>
