<svg width="20" height="20" viewBox="0 0 20 20" fill="none" xmlns="http://www.w3.org/2000/svg">
<path fill-rule="evenodd" clip-rule="evenodd" d="M4.25 4C4.112 4 4 4.112 4 4.25V7.75C4 7.888 4.112 8 4.25 8H7.75C7.888 8 8 7.888 8 7.75V4.25C8 4.112 7.888 4 7.75 4H4.25ZM7.75 9H4.25C3.561 9 3 8.439 3 7.75V4.25C3 3.561 3.561 3 4.25 3H7.75C8.439 3 9 3.561 9 4.25V7.75C9 8.439 8.439 9 7.75 9ZM4 13H3V12.25C3 11.561 3.561 11 4.25 11H5V12H4.25C4.112 12 4 12.112 4 12.25V13ZM9 13H8V12.25C8 12.112 7.888 12 7.75 12H7V11H7.75C8.439 11 9 11.561 9 12.25V13ZM4.983 17H4.25C3.561 17 3 16.439 3 15.75V15H4V15.75C4 15.888 4.112 16 4.25 16H4.983V17ZM7.75 17H7V16H7.75C7.888 16 8 15.888 8 15.75V15H9V15.75C9 16.439 8.439 17 7.75 17ZM11 5H12V4.25C12 4.112 12.112 4 12.25 4H13V3H12.25C11.561 3 11 3.561 11 4.25V5ZM16 5H17V4.25C17 3.561 16.439 3 15.75 3H15V4H15.75C15.888 4 16 4.112 16 4.25V5ZM12.25 9H12.983V8H12.25C12.112 8 12 7.888 12 7.75V7H11V7.75C11 8.439 11.561 9 12.25 9ZM15 9H15.75C16.439 9 17 8.439 17 7.75V7H16V7.75C16 7.888 15.888 8 15.75 8H15V9Z" fill="#000624"/>
</svg>
