<svg width="20" height="20" viewBox="0 0 20 20" fill="none" xmlns="http://www.w3.org/2000/svg">
<path fill-rule="evenodd" clip-rule="evenodd" d="M10.0845 5.04884L11.7095 8.19784C11.7225 8.22384 11.7495 8.24084 11.7795 8.24584L15.4205 8.75184C15.4955 8.76284 15.5265 8.84584 15.4735 8.89584L12.8335 11.3568C12.8125 11.3758 12.8025 11.4028 12.8075 11.4298L13.4305 14.9018C13.4425 14.9708 13.3615 15.0238 13.2925 14.9888L10.0445 13.3568C10.0175 13.3418 9.9825 13.3418 9.9555 13.3568L6.7075 14.9888C6.6385 15.0238 6.5575 14.9708 6.5695 14.9018L7.1925 11.4298C7.1975 11.4028 7.1875 11.3758 7.1675 11.3568L4.5265 8.89584C4.4735 8.84584 4.5045 8.76284 4.5795 8.75184L8.2205 8.24584C8.2515 8.24084 8.2775 8.22384 8.2905 8.19784L9.9155 5.04884C9.9495 4.98384 10.0505 4.98384 10.0845 5.04884Z" stroke="#000624" stroke-linecap="round"/>
</svg>
