<svg width="20" height="20" viewBox="0 0 20 20" fill="none" xmlns="http://www.w3.org/2000/svg">
<path fill-rule="evenodd" clip-rule="evenodd" d="M5.75 4.5C5.612 4.5 5.5 4.612 5.5 4.75V9.25C5.5 9.388 5.612 9.5 5.75 9.5H14.25C14.388 9.5 14.5 9.388 14.5 9.25V4.75C14.5 4.612 14.388 4.5 14.25 4.5H5.75ZM14.25 10.5H5.75C5.061 10.5 4.5 9.939 4.5 9.25V4.75C4.5 4.061 5.061 3.5 5.75 3.5H14.25C14.939 3.5 15.5 4.061 15.5 4.75V9.25C15.5 9.939 14.939 10.5 14.25 10.5ZM5.5 13.5H14.5V12.5H5.5V13.5ZM12.5 16.5H7.5V15.5H12.5V16.5Z" fill="#000624"/>
</svg>
