<svg width="20" height="20" viewBox="0 0 20 20" fill="none" xmlns="http://www.w3.org/2000/svg">
<path fill-rule="evenodd" clip-rule="evenodd" d="M14.4389 15.409C14.4089 15.442 14.3419 15.5 14.2329 15.5H5.76694C5.65794 15.5 5.59094 15.442 5.56094 15.409C5.53394 15.378 5.48994 15.312 5.50294 15.213L6.34294 7.722C6.35694 7.596 6.46394 7.5 6.59094 7.5H13.3979C13.5249 7.5 13.6319 7.595 13.6469 7.72C13.8709 9.662 14.4969 15.213 14.4979 15.221C14.5099 15.312 14.4659 15.378 14.4389 15.409ZM8.49994 6C8.49994 5.173 9.17294 4.5 9.99994 4.5C10.8269 4.5 11.4999 5.173 11.4999 6V6.5H8.49994V6ZM15.4909 15.101C15.4909 15.101 14.8639 9.549 14.6399 7.604C14.5669 6.974 14.0329 6.5 13.3979 6.5H12.4999V6C12.4999 4.621 11.3779 3.5 9.99994 3.5C8.62194 3.5 7.49994 4.621 7.49994 6V6.5H6.59094C5.95394 6.5 5.41994 6.977 5.34894 7.61L4.50994 15.094C4.46494 15.446 4.57394 15.802 4.81094 16.069C5.05094 16.343 5.39994 16.5 5.76694 16.5H14.2329C14.5999 16.5 14.9489 16.343 15.1889 16.069C15.4259 15.802 15.5349 15.446 15.4909 15.101Z" fill="#000624"/>
</svg>
