<svg width="20" height="20" viewBox="0 0 20 20" fill="none" xmlns="http://www.w3.org/2000/svg">
<path fill-rule="evenodd" clip-rule="evenodd" d="M10 15.5C8.459 15.5 7.066 14.861 6.067 13.837C6.854 12.411 8.357 11.5 10 11.5C11.644 11.5 13.147 12.412 13.933 13.836C12.934 14.861 11.541 15.5 10 15.5ZM8.5 9C8.5 8.173 9.173 7.5 10 7.5C10.827 7.5 11.5 8.173 11.5 9C11.5 9.827 10.827 10.5 10 10.5C9.173 10.5 8.5 9.827 8.5 9ZM10 4.5C13.033 4.5 15.5 6.968 15.5 10C15.5 11.105 15.169 12.133 14.606 12.996C13.924 11.952 12.903 11.184 11.735 10.793C12.205 10.338 12.5 9.704 12.5 9C12.5 7.621 11.378 6.5 10 6.5C8.622 6.5 7.5 7.621 7.5 9C7.5 9.704 7.795 10.338 8.265 10.793C7.097 11.185 6.077 11.952 5.394 12.996C4.831 12.133 4.5 11.105 4.5 10C4.5 6.968 6.967 4.5 10 4.5ZM10 3.5C6.416 3.5 3.5 6.416 3.5 10C3.5 13.584 6.416 16.5 10 16.5C13.584 16.5 16.5 13.584 16.5 10C16.5 6.416 13.584 3.5 10 3.5Z" fill="#000624"/>
</svg>
