<svg width="20" height="20" viewBox="0 0 20 20" fill="none" xmlns="http://www.w3.org/2000/svg">
<path fill-rule="evenodd" clip-rule="evenodd" d="M4.5 10C4.5 13.032 6.967 15.5 10 15.5C13.033 15.5 15.5 13.032 15.5 10C15.5 6.968 13.033 4.5 10 4.5C6.967 4.5 4.5 6.968 4.5 10ZM3.5 10C3.5 6.416 6.416 3.5 10 3.5C13.584 3.5 16.5 6.416 16.5 10C16.5 13.584 13.584 16.5 10 16.5C6.416 16.5 3.5 13.584 3.5 10ZM12.479 10.037L8.5 12.5V7.5L12.479 9.961C12.507 9.979 12.507 10.02 12.479 10.037Z" fill="#000624"/>
</svg>
