<svg width="24" height="24" viewBox="0 0 24 24" fill="none" xmlns="http://www.w3.org/2000/svg">
<path fill-rule="evenodd" clip-rule="evenodd" d="M9 9H5V5H9V9ZM4.75 11H9.25C10.215 11 11 10.215 11 9.25V4.75C11 3.785 10.215 3 9.25 3H4.75C3.785 3 3 3.785 3 4.75V9.25C3 10.215 3.785 11 4.75 11ZM9 19H5V15H9V19ZM4.75 21H9.25C10.215 21 11 20.215 11 19.25V14.75C11 13.785 10.215 13 9.25 13H4.75C3.785 13 3 13.785 3 14.75V19.25C3 20.215 3.785 21 4.75 21ZM15 19H19V15H15V19ZM19.25 21H14.75C13.785 21 13 20.215 13 19.25V14.75C13 13.785 13.785 13 14.75 13H19.25C20.215 13 21 13.785 21 14.75V19.25C21 20.215 20.215 21 19.25 21ZM19 9H15.001V5H19V9ZM14.751 11H19.25C20.215 11 21 10.215 21 9.25V4.75C21 3.785 20.215 3 19.25 3H14.751C13.786 3 13.001 3.785 13.001 4.75V9.25C13.001 10.215 13.786 11 14.751 11Z" fill="#000624"/>
</svg>
