<svg width="24" height="24" viewBox="0 0 24 24" fill="none" xmlns="http://www.w3.org/2000/svg">
<path fill-rule="evenodd" clip-rule="evenodd" d="M19.414 18.376C18.658 19.132 17.342 19.132 16.586 18.376C16.208 17.998 16 17.496 16 16.962C16 16.428 16.208 15.926 16.586 15.548C16.964 15.17 17.466 14.962 18 14.962C18.534 14.962 19.036 15.17 19.414 15.548C19.792 15.926 20 16.428 20 16.962C20 17.496 19.792 17.998 19.414 18.376ZM7.414 18.414C6.658 19.17 5.342 19.17 4.586 18.414C4.208 18.036 4 17.534 4 17C4 16.466 4.208 15.964 4.586 15.586C4.964 15.208 5.466 15 6 15C6.534 15 7.036 15.208 7.414 15.586C7.792 15.964 8 16.466 8 17C8 17.534 7.792 18.036 7.414 18.414ZM12 10.962C12.347 10.962 12.682 10.903 13.008 10.818L15.025 14.313C14.589 14.801 14.284 15.375 14.13 16H9.858C9.693 15.358 9.375 14.769 8.913 14.275L10.922 10.797C11.269 10.895 11.628 10.962 12 10.962ZM10.586 5.548C10.964 5.17 11.466 4.962 12 4.962C12.534 4.962 13.036 5.17 13.414 5.548C13.792 5.926 14 6.428 14 6.962C14 7.496 13.792 7.998 13.414 8.376C12.658 9.132 11.342 9.132 10.586 8.376C10.208 7.998 10 7.496 10 6.962C10 6.428 10.208 5.926 10.586 5.548ZM20.828 14.134C19.752 13.057 18.109 12.762 16.704 13.22L14.758 9.848C14.779 9.827 14.807 9.812 14.828 9.79C15.584 9.035 16 8.03 16 6.962C16 5.894 15.584 4.889 14.828 4.134C13.318 2.622 10.682 2.622 9.172 4.134C8.416 4.889 8 5.894 8 6.962C8 8.03 8.416 9.035 9.172 9.79C9.176 9.795 9.182 9.797 9.185 9.802L7.205 13.232C5.821 12.816 4.225 13.117 3.172 14.172C2.416 14.927 2 15.932 2 17C2 18.068 2.416 19.073 3.172 19.828C3.927 20.584 4.932 21 6 21C7.068 21 8.073 20.584 8.828 19.828C9.341 19.316 9.683 18.684 9.858 18H14.153C14.332 18.669 14.669 19.287 15.172 19.79C15.927 20.546 16.932 20.962 18 20.962C19.068 20.962 20.073 20.546 20.828 19.79C21.584 19.035 22 18.03 22 16.962C22 15.894 21.584 14.889 20.828 14.134Z" fill="#000624"/>
</svg>
