<svg width="24" height="24" viewBox="0 0 24 24" fill="none" xmlns="http://www.w3.org/2000/svg">
<path fill-rule="evenodd" clip-rule="evenodd" d="M5 9V5C5 3.897 5.897 3 7 3H10V5H7V9C7 10.2 6.458 11.266 5.618 12C6.458 12.734 7 13.8 7 15V19H10V21H7C5.897 21 5 20.103 5 19V15C5 13.897 4.103 13 3 13V11C4.103 11 5 10.103 5 9ZM19 5V9C19 10.103 19.897 11 21 11V13C19.897 13 19 13.897 19 15V19C19 20.103 18.103 21 17 21H14V19H17V15C17 13.8 17.542 12.734 18.382 12C17.542 11.266 17 10.2 17 9V5H14V3H17C18.103 3 19 3.897 19 5Z" fill="#000624"/>
</svg>
