<svg width="24" height="24" viewBox="0 0 24 24" fill="none" xmlns="http://www.w3.org/2000/svg">
<path fill-rule="evenodd" clip-rule="evenodd" d="M12 19.8463L5 15.8033V8.19626L12 4.15526L19 8.19626V15.8033L12 19.8463ZM11.5 21.8653C11.654 21.9553 11.827 22.0003 12 22.0003C12.173 22.0003 12.346 21.9553 12.5 21.8653L20.5 17.2463C20.81 17.0693 21 16.7393 21 16.3813V7.61926C21 7.26226 20.81 6.93226 20.5 6.75226L12.5 2.13326C12.191 1.95526 11.809 1.95526 11.5 2.13326L3.5 6.75226C3.19 6.93226 3 7.26226 3 7.61926V16.3813C3 16.7393 3.19 17.0693 3.5 17.2463L11.5 21.8653ZM12 15.2267L9 13.4957V10.5057L12 8.77366L15 10.5057V13.4957L12 15.2267ZM11.5 17.2477C11.655 17.3367 11.827 17.3817 12 17.3817C12.173 17.3817 12.345 17.3367 12.5 17.2477L16.5 14.9387C16.81 14.7607 17 14.4307 17 14.0727V9.92866C17 9.57066 16.81 9.24066 16.5 9.06166L12.5 6.75366C12.189 6.57566 11.811 6.57566 11.5 6.75366L7.5 9.06166C7.19 9.24066 7 9.57066 7 9.92866V14.0727C7 14.4307 7.19 14.7607 7.5 14.9387L11.5 17.2477Z" fill="#000624"/>
</svg>
