<svg width="24" height="24" viewBox="0 0 24 24" fill="none" xmlns="http://www.w3.org/2000/svg">
<path fill-rule="evenodd" clip-rule="evenodd" d="M5.02285 9.3191L11.9778 14.0841L18.9648 9.2981L12.1978 4.4911L5.02285 9.3191ZM5.05185 14.7391L12.0068 19.5041L18.9948 14.7171L16.8338 13.1821L13.1078 15.7341C12.4328 16.1961 11.5258 16.1971 10.8468 15.7341L7.24285 13.2641L5.05185 14.7391ZM12.0058 21.5071C11.6138 21.5071 11.2198 21.3891 10.8768 21.1541L3.31385 15.9731C2.90485 15.6941 2.65985 15.2291 2.66185 14.7311C2.66285 14.2331 2.91085 13.7691 3.32385 13.4921L5.46785 12.0481L3.28485 10.5531C2.87585 10.2741 2.62985 9.8091 2.63185 9.3111C2.63285 8.8131 2.88085 8.3491 3.29385 8.0721L11.0808 2.8311C11.7678 2.3691 12.6818 2.3821 13.3558 2.8601L20.7068 8.0811C21.1058 8.3641 21.3418 8.8251 21.3388 9.3151C21.3348 9.8051 21.0918 10.2631 20.6878 10.5421L18.5908 11.9781L20.7368 13.5021C21.1358 13.7861 21.3718 14.2471 21.3678 14.7361C21.3648 15.2261 21.1208 15.6841 20.7168 15.9621L13.1368 21.1541C12.7938 21.3891 12.3998 21.5071 12.0058 21.5071Z" fill="#000624"/>
</svg>
