<svg width="24" height="24" viewBox="0 0 24 24" fill="none" xmlns="http://www.w3.org/2000/svg">
<path fill-rule="evenodd" clip-rule="evenodd" d="M5 19H19V5H5V19ZM19 21H5C3.897 21 3 20.103 3 19V5C3 3.898 3.897 3 5 3H19C20.103 3 21 3.898 21 5V19C21 20.103 20.103 21 19 21ZM15.5 7.0002C16.328 7.0002 17 7.6702 17 8.4972C17 9.3232 16.328 9.9932 15.5 9.9932C14.672 9.9932 14 9.3232 14 8.4972C14 7.6702 14.672 7.0002 15.5 7.0002ZM12.8027 17.0002H16.2197C16.8487 17.0002 17.1987 16.2732 16.8057 15.7822L14.7417 13.1952C14.4427 12.8192 13.8697 12.8192 13.5697 13.1962L12.8527 14.0952L11.2837 12.1302C10.9847 11.7532 10.4127 11.7532 10.1127 12.1292L7.1947 15.7822C6.8017 16.2732 7.1527 17.0002 7.7807 17.0002H11.1977H12.8027Z" fill="#000624"/>
</svg>
