<svg width="24" height="24" viewBox="0 0 24 24" fill="none" xmlns="http://www.w3.org/2000/svg">
<path fill-rule="evenodd" clip-rule="evenodd" d="M18 5L6 5.014V19L17.997 18.985L18 5ZM6 21C5.468 21 4.966 20.792 4.588 20.415C4.209 20.036 4 19.534 4 19V5.014C4 3.914 4.896 3.016 5.996 3.014L17.996 3H18C18.532 3 19.034 3.208 19.412 3.585C19.791 3.964 20 4.465 20 5V18.985C20 20.086 19.104 20.983 18.004 20.985L6.004 21H6ZM9 11.0146H15V9.0146H9V11.0146ZM15 14.9996H9V12.9996H15V14.9996Z" fill="#000624"/>
</svg>
