<svg width="24" height="24" viewBox="0 0 24 24" fill="none" xmlns="http://www.w3.org/2000/svg">
<path fill-rule="evenodd" clip-rule="evenodd" d="M10.139 13.0117C10.049 13.4697 10 13.9337 10 14.4007C10 14.6067 10.015 14.8097 10.03 15.0117H4.627L3.134 19.0117H1L6.599 4.01172H9.058L11.295 10.0027C10.801 10.8887 10.412 11.8187 10.195 12.7747L7.828 6.43772L5.374 13.0117H10.139ZM14 14.3772C14 12.8832 15.165 10.8942 17.501 8.42222C19.823 10.8742 21 12.8752 21 14.3772C21 16.3682 19.43 17.9882 17.5 17.9882C15.57 17.9882 14 16.3682 14 14.3772ZM12 14.3772C12 17.4712 14.468 19.9882 17.5 19.9882C20.532 19.9882 23 17.4712 23 14.3772C23 11.4222 20.291 8.36822 18.208 6.28222C18.021 6.09422 17.742 6.01222 17.477 6.01222C17.211 6.01222 16.934 6.14122 16.746 6.32822C14.709 8.36822 12 11.4222 12 14.3772Z" fill="#000624"/>
</svg>
