<svg width="24" height="24" viewBox="0 0 24 24" fill="none" xmlns="http://www.w3.org/2000/svg">
<path fill-rule="evenodd" clip-rule="evenodd" d="M6.60407 6.60407C4.46007 8.74807 4.46007 12.2381 6.60407 14.3831C8.75007 16.5261 12.2401 16.5281 14.3831 14.3831C16.5271 12.2381 16.5271 8.74807 14.3831 6.60407C13.3111 5.53207 11.9021 4.99607 10.4941 4.99607C9.08507 4.99607 7.67607 5.53207 6.60407 6.60407ZM16.4521 15.0371L21.0031 19.5891L19.5891 21.0031L15.0381 16.4511C13.7011 17.4721 12.0991 17.9891 10.4941 17.9891C8.57307 17.9891 6.65207 17.2591 5.19007 15.7971C2.26607 12.8721 2.26607 8.11407 5.19007 5.19007C8.11407 2.26607 12.8741 2.26607 15.7971 5.19007C18.4811 7.87407 18.6941 12.0991 16.4521 15.0371ZM12.9717 10.9935H7.97167V9.99347H12.9717V10.9935Z" fill="#000624"/>
</svg>
