<svg width="24" height="24" viewBox="0 0 24 24" fill="none" xmlns="http://www.w3.org/2000/svg">
<path fill-rule="evenodd" clip-rule="evenodd" d="M6.60407 14.3831C4.46007 12.2381 4.46007 8.74807 6.60407 6.60407C7.67607 5.53207 9.08507 4.99607 10.4941 4.99607C11.9021 4.99607 13.3111 5.53207 14.3831 6.60407C16.5271 8.74807 16.5271 12.2381 14.3831 14.3831C12.2401 16.5281 8.75007 16.5261 6.60407 14.3831ZM21.0031 19.5891L16.4521 15.0371C18.6941 12.0991 18.4811 7.87407 15.7971 5.19007C12.8741 2.26607 8.11407 2.26607 5.19007 5.19007C2.26607 8.11407 2.26607 12.8721 5.19007 15.7971C6.65207 17.2591 8.57307 17.9891 10.4941 17.9891C12.0991 17.9891 13.7011 17.4721 15.0381 16.4511L19.5891 21.0031L21.0031 19.5891Z" fill="#000624"/>
</svg>
