<svg width="24" height="25" viewBox="0 0 24 25" fill="none" xmlns="http://www.w3.org/2000/svg">
<path fill-rule="evenodd" clip-rule="evenodd" d="M10.0019 12.494L16.0059 6.50198L21.9999 12.504L21.9979 12.506L15.9939 18.498L10.0019 12.494ZM14.5799 19.912C14.9719 20.304 15.4849 20.499 15.9999 20.499C16.5149 20.499 17.0279 20.304 17.4199 19.912L23.4119 13.92C24.1949 13.137 24.1949 11.863 23.4119 11.08L17.4199 5.08798C16.6369 4.30498 15.3629 4.30498 14.5799 5.08798L8.5879 11.08C7.8049 11.863 7.8049 13.137 8.5879 13.92L14.5799 19.912ZM7 9.49998H3V7.49998H7V9.49998ZM6 13.5V11.5H0V13.5H6ZM7 17.5H3V15.5H7V17.5Z" fill="#000624"/>
</svg>
