<svg width="24" height="25" viewBox="0 0 24 25" fill="none" xmlns="http://www.w3.org/2000/svg">
<path fill-rule="evenodd" clip-rule="evenodd" d="M15.5 13.5C14.121 13.5 13 12.225 13 10.657C13 9.485 13.832 7.93 15.501 5.995C17.16 7.914 18 9.48 18 10.657C18 12.225 16.879 13.5 15.5 13.5ZM16 18.5H6V8.5H11.479C11.189 9.211 11 9.936 11 10.657C11 13.327 13.019 15.5 15.5 15.5C15.671 15.5 15.834 15.466 16 15.446V18.5ZM20 10.657C20 8.153 17.871 5.578 16.231 3.818C16.043 3.615 15.759 3.521 15.48 3.521C15.203 3.521 14.919 3.657 14.729 3.86C14.037 4.603 13.254 5.512 12.579 6.5H6C4.897 6.5 4 7.397 4 8.5V18.5C4 19.603 4.897 20.5 6 20.5H16C17.103 20.5 18 19.603 18 18.5V14.68C19.205 13.81 20 12.332 20 10.657Z" fill="#000624"/>
</svg>
