<svg width="24" height="25" viewBox="0 0 24 25" fill="none" xmlns="http://www.w3.org/2000/svg">
<path fill-rule="evenodd" clip-rule="evenodd" d="M15.923 16C15.742 16.095 15.595 16.242 15.501 16.423L14.23 18.853L12.485 12.985L18.353 14.729L15.923 16ZM6 16.5V6.5H17V12.241L11.285 10.542C10.937 10.438 10.554 10.533 10.293 10.793C10.033 11.053 9.937 11.434 10.041 11.785L11.444 16.5H6ZM21.285 13.515L19 12.835V6.5C19 5.397 18.103 4.5 17 4.5H6C4.898 4.5 4 5.397 4 6.5V16.5C4 17.603 4.898 18.5 6 18.5H12.038L13.015 21.785C13.131 22.175 13.472 22.456 13.877 22.495C13.91 22.499 13.943 22.5 13.974 22.5C14.344 22.5 14.687 22.295 14.86 21.963L17.128 17.627L21.464 15.36C21.824 15.171 22.034 14.782 21.995 14.377C21.956 13.972 21.675 13.631 21.285 13.515Z" fill="#000624"/>
</svg>
