<svg width="24" height="25" viewBox="0 0 24 25" fill="none" xmlns="http://www.w3.org/2000/svg">
<path fill-rule="evenodd" clip-rule="evenodd" d="M18.56 18.0601C17.976 18.6451 17.023 18.6451 16.439 18.0601C16.156 17.7771 15.999 17.4001 15.999 17.0001C15.999 16.6001 16.156 16.2231 16.439 15.9391C16.731 15.6471 17.116 15.5011 17.499 15.5011C17.883 15.5011 18.268 15.6471 18.56 15.9401C18.843 16.2231 18.999 16.6001 18.999 17.0001C18.999 17.4001 18.843 17.7771 18.56 18.0601ZM7.56002 18.0601C6.97602 18.6451 6.02302 18.6451 5.43902 18.0601C5.15602 17.7771 4.99902 17.4001 4.99902 17.0001C4.99902 16.6001 5.15602 16.2231 5.43902 15.9391C5.73102 15.6471 6.11602 15.5011 6.49902 15.5011C6.88302 15.5011 7.26802 15.6471 7.56002 15.9401C7.84302 16.2231 7.99902 16.6001 7.99902 17.0001C7.99902 17.4001 7.84302 17.7771 7.56002 18.0601ZM10.884 11.3021C11.247 11.4241 11.622 11.4981 11.999 11.4981C12.377 11.4981 12.752 11.4241 13.115 11.3021L15.04 14.5121C15.036 14.5171 15.03 14.5201 15.025 14.5251C14.484 15.0661 14.155 15.7561 14.048 16.5001H9.95102C9.84402 15.7561 9.51502 15.0661 8.97402 14.5251C8.96902 14.5201 8.96302 14.5181 8.95802 14.5131L10.884 11.3021ZM10.939 6.93908C11.231 6.64708 11.616 6.50108 11.999 6.50108C12.383 6.50108 12.768 6.64708 13.06 6.94008C13.343 7.22308 13.499 7.60008 13.499 8.00008C13.499 8.40008 13.343 8.77708 13.06 9.06008C12.476 9.64508 11.523 9.64508 10.939 9.06008C10.656 8.77708 10.499 8.40008 10.499 8.00008C10.499 7.60008 10.656 7.22308 10.939 6.93908ZM19.974 14.5251C19.115 13.6661 17.918 13.3511 16.809 13.5721L14.749 10.1401C15.227 9.52808 15.499 8.78808 15.499 8.00008C15.499 7.06508 15.135 6.18608 14.474 5.52508C13.109 4.16008 10.89 4.16208 9.52502 5.52508C8.86402 6.18608 8.49902 7.06508 8.49902 8.00008C8.49902 8.78808 8.77202 9.52808 9.24902 10.1401L7.19002 13.5721C6.08102 13.3511 4.88402 13.6671 4.02502 14.5251C3.36402 15.1861 2.99902 16.0651 2.99902 17.0001C2.99902 17.9351 3.36402 18.8141 4.02502 19.4751C4.70702 20.1571 5.60302 20.4981 6.49902 20.4981C7.39602 20.4981 8.29102 20.1571 8.97402 19.4751C9.26102 19.1881 9.48002 18.8551 9.64902 18.5001H14.35C14.519 18.8551 14.739 19.1881 15.025 19.4751C15.707 20.1571 16.603 20.4981 17.499 20.4981C18.396 20.4981 19.291 20.1571 19.974 19.4751C20.635 18.8141 20.999 17.9351 20.999 17.0001C20.999 16.0651 20.635 15.1861 19.974 14.5251Z" fill="#000624"/>
</svg>
