<svg width="24" height="25" viewBox="0 0 24 25" fill="none" xmlns="http://www.w3.org/2000/svg">
<path fill-rule="evenodd" clip-rule="evenodd" d="M13 18.7397V13.3537C13.879 12.8897 15.369 12.0137 17.999 10.4537L18 15.7777C16.355 16.7527 14.348 17.9437 13 18.7397ZM6 10.4577L11 13.4347V18.7567L6 15.7787V10.4577ZM12.175 5.65771L17.069 8.68071C15.114 9.84071 12.931 11.1337 11.981 11.6917L6.967 8.70371L12.175 5.65771ZM20 8.70571C20.003 8.35671 19.823 8.03071 19.525 7.84671L12.734 3.65371C12.421 3.46271 11.975 3.45671 11.657 3.64371L4.495 7.83471C4.189 8.01371 4.001 8.34071 4 8.69471C4 8.69771 4.001 8.69871 4.001 8.70171H4V16.3467C4 16.6997 4.186 17.0267 4.488 17.2057L11.463 21.3597C11.601 21.4417 11.702 21.5017 11.851 21.5017C12.265 21.5017 13.047 21.0377 16.001 19.2877C19.564 17.1767 19.564 17.1767 19.636 17.1177C19.866 16.9277 19.999 16.6447 19.999 16.3467V8.71271C19.999 8.71071 20 8.70771 20 8.70571Z" fill="#000624"/>
</svg>
