<svg width="24" height="25" viewBox="0 0 24 25" fill="none" xmlns="http://www.w3.org/2000/svg">
<path fill-rule="evenodd" clip-rule="evenodd" d="M11 16.5088H6C4.897 16.5088 4 15.6118 4 14.5088V6.50879C4 5.40579 4.897 4.50879 6 4.50879H16C17.103 4.50879 18 5.40579 18 6.50879V7.50879H16V6.50879H6V14.5088H11V16.5088ZM14 18.5088H18.001L18 10.5088H14V18.5088ZM18 20.5088H14C12.897 20.5088 12 19.6118 12 18.5088V10.5088C12 9.40579 12.897 8.50879 14 8.50879H18C19.103 8.50879 20 9.40579 20 10.5088V18.5088C20 19.6118 19.103 20.5088 18 20.5088ZM11 19.509H6V17.509H11V19.509Z" fill="#000624"/>
</svg>
