<svg width="24" height="25" viewBox="0 0 24 25" fill="none" xmlns="http://www.w3.org/2000/svg">
<path fill-rule="evenodd" clip-rule="evenodd" d="M17 18.5C16.449 18.5 16 18.052 16 17.5C16 16.948 16.449 16.5 17 16.5C17.551 16.5 18 16.948 18 17.5C18 18.052 17.551 18.5 17 18.5ZM7 8.5C6.449 8.5 6 8.052 6 7.5C6 6.948 6.449 6.5 7 6.5C7.551 6.5 8 6.948 8 7.5C8 8.052 7.551 8.5 7 8.5ZM17 14.5C15.698 14.5 14.599 15.339 14.184 16.5H14C13.449 16.5 13 16.052 13 15.5V9.5C13 7.846 11.654 6.5 10 6.5H9.816C9.401 5.339 8.302 4.5 7 4.5C5.346 4.5 4 5.846 4 7.5C4 9.154 5.346 10.5 7 10.5C8.302 10.5 9.401 9.661 9.816 8.5H10C10.551 8.5 11 8.948 11 9.5V15.5C11 17.154 12.346 18.5 14 18.5H14.185C14.599 19.661 15.698 20.5 17 20.5C18.654 20.5 20 19.154 20 17.5C20 15.846 18.654 14.5 17 14.5Z" fill="#000624"/>
</svg>
