<svg width="24" height="25" viewBox="0 0 24 25" fill="none" xmlns="http://www.w3.org/2000/svg">
<path fill-rule="evenodd" clip-rule="evenodd" d="M15.1018 13.2503C14.4308 13.8893 13.9768 14.6653 13.7228 15.4993H10.2718C10.0258 14.6733 9.56877 13.8953 8.88777 13.2433C7.76777 12.1723 7.29077 10.6693 7.58077 9.12132C7.90777 7.37632 9.28877 5.96232 11.0188 5.60132C11.3518 5.53232 11.6828 5.49832 12.0088 5.49832C13.0408 5.49832 14.0198 5.84232 14.8358 6.50532C15.8928 7.36432 16.4988 8.63732 16.4988 9.99832C16.4988 11.2383 16.0028 12.3933 15.1018 13.2503ZM10.4848 19.4993H13.4848V17.4993H10.4848V19.4993ZM16.0968 4.95332C14.5708 3.71232 12.5688 3.23532 10.6098 3.64332C8.09677 4.16832 6.08877 6.22132 5.61577 8.75332C5.20477 10.9453 5.91177 13.1643 7.50577 14.6893C8.13677 15.2923 8.48477 16.0403 8.48477 16.7923V19.4993C8.48477 20.6023 9.38177 21.4993 10.4848 21.4993H13.4848C14.5878 21.4993 15.4848 20.6023 15.4848 19.4993V16.9213C15.4848 16.0993 15.8388 15.3103 16.4808 14.6993C17.7818 13.4603 18.4988 11.7913 18.4988 9.99832C18.4988 8.03332 17.6228 6.19432 16.0968 4.95332Z" fill="#000624"/>
</svg>
