<svg width="24" height="25" viewBox="0 0 24 25" fill="none" xmlns="http://www.w3.org/2000/svg">
<path fill-rule="evenodd" clip-rule="evenodd" d="M12 18.5C8.282 18.5 6 17.044 6 16V15.032C7.443 15.941 9.558 16.5 12 16.5C14.442 16.5 16.557 15.941 18 15.032V16C18 17.044 15.718 18.5 12 18.5ZM12 5.5C15.718 5.5 18 6.956 18 8C18 9.044 15.718 10.5 12 10.5C8.282 10.5 6 9.044 6 8C6 6.956 8.282 5.5 12 5.5ZM18 12C18 13.044 15.718 14.5 12 14.5C8.282 14.5 6 13.044 6 12V11.032C7.443 11.941 9.558 12.5 12 12.5C14.442 12.5 16.557 11.941 18 11.032V12ZM12 3.5C7.439 3.5 4 5.435 4 8V16C4 18.565 7.439 20.5 12 20.5C16.561 20.5 20 18.565 20 16V8C20 5.435 16.561 3.5 12 3.5Z" fill="#000624"/>
</svg>
