<svg width="24" height="25" viewBox="0 0 24 25" fill="none" xmlns="http://www.w3.org/2000/svg">
<path fill-rule="evenodd" clip-rule="evenodd" d="M7.01789 18.5H5.68589C5.86789 17.961 5.99989 17.295 5.99989 16.5C5.99989 15.103 7.53189 14.613 8.60389 14.519L9.98589 15.899C9.81889 18.036 8.30189 18.5 7.01789 18.5ZM13.3999 9.3C14.4959 7.839 16.1309 6.869 17.9139 6.586C17.6309 8.369 16.6609 10.004 15.2009 11.1L11.0939 14.18L10.3209 13.406L13.3999 9.3ZM16.3999 12.7C18.6549 11.01 19.9999 8.318 19.9999 5.5C19.9999 4.948 19.5529 4.5 18.9999 4.5C16.1819 4.5 13.4909 5.846 11.7999 8.1L8.48489 12.521C6.17989 12.698 3.99989 14.056 3.99989 16.5C3.99989 18.019 3.31089 18.773 3.29289 18.793C3.00689 19.079 2.92089 19.509 3.07689 19.883C3.23089 20.256 3.59589 20.5 3.99989 20.5H7.01789C9.30889 20.5 11.7459 19.307 11.9779 16.017L16.3999 12.7Z" fill="#000624"/>
</svg>
