<svg width="16" height="16" viewBox="0 0 16 16" fill="none" xmlns="http://www.w3.org/2000/svg">
<path fill-rule="evenodd" clip-rule="evenodd" d="M11.057 6.15002L9.84896 4.94202L10.7923 3.99935L11.9996 5.20735L11.057 6.15002ZM5.65859 11.5487L4.16992 11.83L4.45126 10.3407L8.90659 5.88534L10.1146 7.09267L5.65859 11.5487ZM12.9427 4.26469L11.7354 3.05669C11.2141 2.53669 10.3707 2.53669 9.8494 3.05669L3.50807 9.39869C3.31807 9.58935 3.19074 9.83002 3.1414 10.0934L2.67874 12.5427C2.6374 12.7594 2.70674 12.982 2.86207 13.1374C2.98807 13.264 3.15807 13.3327 3.3334 13.3327C3.37474 13.3327 3.41607 13.3294 3.4574 13.3214L5.90474 12.8587C6.17074 12.8087 6.41207 12.6814 6.6014 12.4914L12.9427 6.15002C13.1947 5.89869 13.3334 5.56402 13.3334 5.20735C13.3334 4.85135 13.1947 4.51669 12.9427 4.26469Z" fill="#000624"/>
</svg>
