<svg width="24" height="25" viewBox="0 0 24 25" fill="none" xmlns="http://www.w3.org/2000/svg">
<path fill-rule="evenodd" clip-rule="evenodd" d="M16.5856 9.725L14.7736 7.913L16.1886 6.499L17.9996 8.311L16.5856 9.725ZM8.48762 17.823L6.25462 18.245L6.67662 16.011L13.3596 9.328L15.1716 11.139L8.48762 17.823ZM19.4136 6.897L17.6026 5.085C16.8206 4.305 15.5556 4.305 14.7736 5.085L5.26162 14.598C4.97662 14.884 4.78562 15.245 4.71162 15.64L4.01762 19.314C3.95562 19.639 4.05962 19.973 4.29262 20.206C4.48162 20.396 4.73662 20.499 4.99962 20.499C5.06162 20.499 5.12362 20.494 5.18562 20.482L8.85662 19.788C9.25562 19.713 9.61762 19.522 9.90162 19.237L19.4136 9.725C19.7916 9.348 19.9996 8.846 19.9996 8.311C19.9996 7.777 19.7916 7.275 19.4136 6.897Z" fill="#000624"/>
</svg>
