<svg width="24" height="25" viewBox="0 0 24 25" fill="none" xmlns="http://www.w3.org/2000/svg">
<path fill-rule="evenodd" clip-rule="evenodd" d="M7.00025 18.0859L5.41425 16.4999L12.0002 9.91388L13.5863 11.4999L7.00025 18.0859ZM16.0003 5.91388L17.5863 7.49988L15.0003 10.0859L13.4143 8.49988L16.0003 5.91388ZM19.7073 8.20688C20.0983 7.81588 20.0983 7.18388 19.7073 6.79288L16.7072 3.79288C16.3162 3.40188 15.6842 3.40188 15.2933 3.79288L11.2933 7.79288L3.29325 15.7929C2.90225 16.1839 2.90225 16.8159 3.29325 17.2069L6.29325 20.2069C6.48825 20.4019 6.74425 20.4999 7.00025 20.4999C7.25625 20.4999 7.51225 20.4019 7.70725 20.2069L15.7072 12.2069L19.7073 8.20688ZM5.00025 9.49998H7.00025V7.49998H9.00025V5.49998H7.00025V3.49998H5.00025V5.49998H3.00025V7.49998H5.00025V9.49998ZM16.0002 14.5H18.0002V16.5H20.0002V18.5H18.0002V20.5H16.0002V18.5H14.0002V16.5H16.0002V14.5Z" fill="#000624"/>
</svg>
