<svg width="24" height="25" viewBox="0 0 24 25" fill="none" xmlns="http://www.w3.org/2000/svg">
<path fill-rule="evenodd" clip-rule="evenodd" d="M6 9.5H4V6.5C4 5.397 4.897 4.5 6 4.5H9V6.5H6V9.5ZM9 20.5H6C4.897 20.5 4 19.603 4 18.5V15.5H6V18.5H9V20.5ZM15 20.5H18C19.103 20.5 20 19.603 20 18.5V15.5H18V18.5H15V20.5ZM20 9.5H18V6.5H15V4.5H18C19.103 4.5 20 5.397 20 6.5V9.5ZM12 14.5C13.104 14.5 14 13.604 14 12.5C14 11.396 13.104 10.5 12 10.5C10.896 10.5 10 11.396 10 12.5C10 13.604 10.896 14.5 12 14.5Z" fill="#000624"/>
</svg>
