<svg width="24" height="25" viewBox="0 0 24 25" fill="none" xmlns="http://www.w3.org/2000/svg">
<path fill-rule="evenodd" clip-rule="evenodd" d="M12.083 4.50012C14.364 4.50012 15.541 5.51912 16.145 6.36212C17.126 7.73412 17.118 9.50012 16.832 10.2761C16.488 11.3771 15.715 12.4251 14.241 13.6211C13.375 14.3211 13.031 15.1091 12.997 16.5001H10.993C11.026 15.1721 11.279 13.4511 12.974 12.0711C14.009 11.2281 14.689 10.4161 14.909 9.67612C15.031 9.26312 15.065 8.25712 14.462 7.45212C13.991 6.82012 13.19 6.50012 12.083 6.50012C10.158 6.50012 9.12802 7.92612 9.02602 9.26212C9.02062 9.32691 9.01582 9.38812 9.01115 9.44761C9.00977 9.46525 9.0084 9.48274 9.00702 9.50012H6.99902C7.00195 9.45509 7.00448 9.41194 7.00705 9.36811C7.01149 9.29222 7.01605 9.2143 7.02302 9.12112C7.20002 6.82412 9.02602 4.50012 12.083 4.50012ZM12.9999 20.5H10.9999V18.5H12.9999V20.5Z" fill="#000624"/>
</svg>
