<svg width="24" height="25" viewBox="0 0 24 25" fill="none" xmlns="http://www.w3.org/2000/svg">
<path fill-rule="evenodd" clip-rule="evenodd" d="M7.82168 13.4999H10.9997C11.5517 13.4999 11.9997 13.9479 11.9997 14.4999V18.066L16.1778 11.4999H12.9998C12.4478 11.4999 11.9997 11.0519 11.9997 10.4999V6.93389L7.82168 13.4999ZM10.9997 22.5C10.9067 22.5 10.8127 22.487 10.7197 22.46C10.2937 22.336 9.99972 21.945 9.99972 21.5V15.5H5.99965C5.63465 15.5 5.29864 15.3009 5.12364 14.9809C4.94764 14.6609 4.96064 14.2709 5.15564 13.9629L12.1558 2.96286C12.3948 2.58786 12.8498 2.41586 13.2798 2.53986C13.7068 2.66386 13.9998 3.05486 13.9998 3.49987V9.49991H17.9998C18.3649 9.49991 18.7009 9.69891 18.8769 10.0189C19.0519 10.3389 19.0399 10.7289 18.8439 11.0369L11.8437 22.037C11.6567 22.331 11.3357 22.5 10.9997 22.5Z" fill="#000624"/>
</svg>
