<svg width="24" height="25" viewBox="0 0 24 25" fill="none" xmlns="http://www.w3.org/2000/svg">
<path fill-rule="evenodd" clip-rule="evenodd" d="M12 19.3809L5.349 14.4999L6.384 13.7399L11.109 17.2079C11.376 17.4039 11.688 17.5019 12 17.5019C12.312 17.5019 12.624 17.4039 12.891 17.2079L17.616 13.7409L18.651 14.4999L12 19.3809ZM12 5.61891L18.651 10.4999L12 15.3809L5.349 10.4999L12 5.61891ZM20.389 13.2939L19.307 12.4999L20.39 11.7059C20.771 11.4239 21 10.9739 21 10.4999C21 10.0269 20.771 9.57591 20.39 9.29491C20.389 9.29491 20.389 9.29391 20.389 9.29391L12.891 3.79191C12.357 3.40091 11.643 3.40091 11.109 3.79191L3.61 9.29491C3.229 9.57591 3 10.0269 3 10.4999C3 10.9739 3.229 11.4239 3.611 11.7059L4.693 12.4999L3.61 13.2949C3.229 13.5759 3 14.0269 3 14.4999C3 14.9739 3.229 15.4239 3.611 15.7059L11.109 21.2079C11.376 21.4039 11.688 21.5019 12 21.5019C12.312 21.5019 12.624 21.4039 12.891 21.2079L20.39 15.7059C20.771 15.4239 21 14.9739 21 14.4999C21 14.0269 20.771 13.5759 20.389 13.2939Z" fill="#000624"/>
</svg>
