<svg width="24" height="25" viewBox="0 0 24 25" fill="none" xmlns="http://www.w3.org/2000/svg">
<path fill-rule="evenodd" clip-rule="evenodd" d="M6 4.5H14C15.1 4.5 16 5.4 16 6.5V8.5H14V6.5H6V14.5H8V16.5H6C4.9 16.5 4 15.6 4 14.5V6.5C4 5.4 4.9 4.5 6 4.5ZM12 20.5H10V18.5H12V20.5ZM14 20.5H16V18.5H14V20.5ZM20 18.5C20 19.604 19.104 20.5 18 20.5V18.5H20ZM18 12.5H20V10.5H18V12.5ZM20 16.5H18V14.5H20V16.5ZM10 16.5H12V14.5H10V16.5ZM12 12.5H10V10.5H12V12.5ZM14 12.5H16V10.5H14V12.5ZM16 16.5H14V14.5H16V16.5Z" fill="#000624"/>
</svg>
