<svg width="24" height="25" viewBox="0 0 24 25" fill="none" xmlns="http://www.w3.org/2000/svg">
<path fill-rule="evenodd" clip-rule="evenodd" d="M16.9714 15.5708L15.5564 14.1568L16.9254 12.7868C17.6184 12.0938 17.9994 11.1688 17.9994 10.1798C17.9994 9.19282 17.6184 8.26682 16.9254 7.57382C15.4884 6.13682 13.1504 6.13682 11.7124 7.57382L10.3424 8.94382L8.9284 7.52982L10.2984 6.15982C12.5154 3.94282 16.1224 3.94282 18.3394 6.15982C19.4094 7.22982 19.9994 8.65782 19.9994 10.1798C19.9994 11.7028 19.4094 13.1308 18.3394 14.2008L16.9714 15.5708ZM9.6804 16.2422L8.2664 14.8282L14.3194 8.77522L15.7334 10.1892L9.6804 16.2422ZM8.443 10.8403L7.028 9.42632L5.66 10.7963C4.59 11.8663 4 13.2943 4 14.8173C4 16.3393 4.59 17.7673 5.66 18.8373C7.877 21.0543 11.484 21.0543 13.701 18.8373L15.071 17.4673L13.657 16.0533L12.287 17.4233C10.849 18.8603 8.511 18.8603 7.074 17.4233C6.381 16.7303 6 15.8043 6 14.8173C6 13.8283 6.381 12.9033 7.074 12.2103L8.443 10.8403Z" fill="#000624"/>
</svg>
