<svg width="24" height="25" viewBox="0 0 24 25" fill="none" xmlns="http://www.w3.org/2000/svg">
<path fill-rule="evenodd" clip-rule="evenodd" d="M18 18.1001C18 18.3211 17.82 18.5001 17.6 18.5001H11V15.5001C11 14.3951 10.104 13.5001 9 13.5001H6V6.90012C6 6.67912 6.18 6.50012 6.4 6.50012H18V18.1001ZM18 4.50012H6.4C5.077 4.50012 4 5.57712 4 6.90012V13.5001V18.5001C4 19.6041 4.896 20.5001 6 20.5001H11H17.6C18.923 20.5001 20 19.4231 20 18.1001V6.50012C20 5.39712 19.103 4.50012 18 4.50012Z" fill="#000624"/>
</svg>
