<svg width="24" height="25" viewBox="0 0 24 25" fill="none" xmlns="http://www.w3.org/2000/svg">
<path fill-rule="evenodd" clip-rule="evenodd" d="M18 9.5H20V6.5C20 5.397 19.103 4.5 18 4.5H15V6.5H18V9.5ZM9 20.5H6C4.897 20.5 4 19.603 4 18.5V15.5H6V18.5H9V20.5ZM18 20.5H15V18.5H18V15.5H20V18.5C20 19.603 19.103 20.5 18 20.5ZM6 9.5H4V6.5C4 5.397 4.897 4.5 6 4.5H9V6.5H6V9.5ZM10 15.5H14C14.553 15.5 15 15.052 15 14.5V10.5C15 9.948 14.553 9.5 14 9.5H10C9.447 9.5 9 9.948 9 10.5V14.5C9 15.052 9.447 15.5 10 15.5Z" fill="#000624"/>
</svg>
