<svg width="24" height="25" viewBox="0 0 24 25" fill="none" xmlns="http://www.w3.org/2000/svg">
<path fill-rule="evenodd" clip-rule="evenodd" d="M12 6.49988C10.322 6.49988 8.806 7.12188 7.712 8.21188L10 10.4999H4V4.49988L6.297 6.79688C7.759 5.33388 9.775 4.49988 12 4.49988C16.411 4.49988 20 8.08888 20 12.4999H18C18 9.19088 15.309 6.49988 12 6.49988ZM12.0002 18.5001C13.6782 18.5001 15.1942 17.8781 16.2882 16.7881L14.0002 14.5001H20.0002V20.5001L17.7032 18.2031C16.2422 19.6661 14.2252 20.5001 12.0002 20.5001C7.5892 20.5001 4.0002 16.9111 4.0002 12.5001H6.0002C6.0002 15.8091 8.6912 18.5001 12.0002 18.5001Z" fill="#000624"/>
</svg>
