<svg width="24" height="25" viewBox="0 0 24 25" fill="none" xmlns="http://www.w3.org/2000/svg">
<path fill-rule="evenodd" clip-rule="evenodd" d="M16.2131 7.70712L12.0031 3.49712L7.78708 7.70712L6.37308 6.29312L10.5831 2.08312C11.3641 1.30212 12.6351 1.30312 13.4171 2.08212L17.6271 6.29312L16.2131 7.70712ZM6.99548 14.5109L12.0105 19.5039L16.9935 14.4999L11.9895 9.49592L6.99548 14.5109ZM13.4055 8.08292L18.4185 13.0969C19.1925 13.8699 19.1925 15.1299 18.4185 15.9029L13.4045 20.9179C13.0305 21.2929 12.5315 21.4999 12.0005 21.4999C11.4695 21.4999 10.9705 21.2929 10.5955 20.9169L5.58148 15.9029C4.80748 15.1299 4.80748 13.8699 5.58148 13.0969L10.5965 8.08192C11.3445 7.33192 12.6555 7.33092 13.4055 8.08292Z" fill="#000624"/>
</svg>
