<svg width="24" height="25" viewBox="0 0 24 25" fill="none" xmlns="http://www.w3.org/2000/svg">
<path fill-rule="evenodd" clip-rule="evenodd" d="M16.3677 16.194L17.5187 16.863L18.4977 15.143L17.3467 14.459C16.9827 14.247 16.7907 13.83 16.8657 13.416C16.9247 13.092 16.9537 12.792 16.9537 12.5C16.9537 12.208 16.9247 11.908 16.8657 11.584C16.7907 11.17 16.9827 10.753 17.3467 10.541L18.4977 9.872L17.5137 8.137L16.3677 8.806C15.9977 9.02 15.5347 8.977 15.2107 8.699C14.7507 8.301 14.2257 7.996 13.6487 7.791C13.2497 7.648 12.9847 7.271 12.9847 6.848V5.508L11.0157 5.5V6.848C11.0157 7.271 10.7497 7.648 10.3517 7.791C9.77471 7.996 9.24871 8.301 8.78971 8.699C8.46571 8.978 8.00171 9.02 7.63271 8.806L6.48171 8.136L5.50171 9.856L6.65371 10.541C7.01771 10.753 7.20871 11.17 7.13471 11.584C7.07571 11.908 7.04671 12.208 7.04671 12.5C7.04671 12.792 7.07571 13.092 7.13471 13.416C7.20871 13.83 7.01771 14.247 6.65371 14.459L5.50271 15.128L6.48671 16.862L7.63271 16.194C7.78971 16.103 7.96271 16.058 8.13571 16.058C8.37071 16.058 8.60271 16.14 8.78971 16.301C9.24871 16.698 9.77471 17.004 10.3517 17.209C10.7497 17.351 11.0157 17.728 11.0157 18.151V19.492L12.9827 19.5L12.9847 18.151C12.9847 17.728 13.2497 17.351 13.6487 17.209C14.2257 17.004 14.7507 16.698 15.2107 16.301C15.5337 16.022 15.9987 15.98 16.3677 16.194ZM18.9287 13.065L19.5027 13.399C20.4537 13.952 20.7817 15.179 20.2347 16.136L19.2497 17.856C18.9827 18.323 18.5497 18.656 18.0317 18.795C17.5147 18.934 16.9767 18.861 16.5127 18.592L15.9437 18.26C15.6387 18.471 15.3197 18.657 14.9847 18.817V19.49C14.9847 20.598 14.0857 21.5 12.9827 21.5H11.0157C9.91371 21.5 9.01571 20.599 9.01571 19.492V18.817C8.68071 18.657 8.36171 18.471 8.05671 18.26L7.48771 18.592C7.02571 18.861 6.48571 18.934 5.96871 18.795C5.45071 18.656 5.01771 18.323 4.75071 17.856L3.76571 16.137C3.21871 15.179 3.54671 13.952 4.49771 13.399L5.07171 13.065C5.05471 12.875 5.04671 12.687 5.04671 12.5C5.04671 12.313 5.05471 12.125 5.07171 11.934L4.49771 11.6C3.54671 11.048 3.21871 9.82 3.76571 8.863L4.74971 7.143C5.01771 6.676 5.45071 6.343 5.96871 6.205C6.48671 6.066 7.02471 6.138 7.48771 6.407L8.05771 6.739C8.36171 6.528 8.68071 6.342 9.01571 6.182V5.508C9.01571 4.4 9.91371 3.5 11.0157 3.5H12.9847C14.0867 3.5 14.9847 4.4 14.9847 5.508V6.182C15.3197 6.342 15.6387 6.528 15.9427 6.739L16.5127 6.407C16.9747 6.138 17.5137 6.066 18.0317 6.205C18.5497 6.343 18.9827 6.676 19.2487 7.143L20.2347 8.862C20.7817 9.82 20.4537 11.048 19.5027 11.6L18.9287 11.934C18.9457 12.125 18.9537 12.313 18.9537 12.5C18.9537 12.687 18.9457 12.875 18.9287 13.065ZM10.0213 12.7802C9.86526 11.6862 10.6263 10.6742 11.7193 10.5192C12.8133 10.3642 13.8253 11.1242 13.9813 12.2182C14.1363 13.3122 13.3753 14.3242 12.2813 14.4792C11.1883 14.6352 10.1763 13.8742 10.0213 12.7802Z" fill="#000624"/>
</svg>
