<svg width="24" height="25" viewBox="0 0 24 25" fill="none" xmlns="http://www.w3.org/2000/svg">
<path fill-rule="evenodd" clip-rule="evenodd" d="M14 18.5C11.794 18.5 10 16.706 10 14.5C10 12.294 11.794 10.5 14 10.5C16.206 10.5 18 12.294 18 14.5C18 16.706 16.206 18.5 14 18.5ZM8.09 13.5H6V6.5H13V8.59C10.493 9.014 8.514 10.993 8.09 13.5ZM15 8.59V6.25C15 5.285 14.215 4.5 13.25 4.5H5.75C4.785 4.5 4 5.285 4 6.25V13.75C4 14.715 4.785 15.5 5.75 15.5H8.09C8.568 18.333 11.033 20.5 14 20.5C17.309 20.5 20 17.808 20 14.5C20 11.533 17.833 9.069 15 8.59Z" fill="#000624"/>
</svg>
