<svg width="24" height="25" viewBox="0 0 24 25" fill="none" xmlns="http://www.w3.org/2000/svg">
<path fill-rule="evenodd" clip-rule="evenodd" d="M14 19.4997C14.07 19.4997 14.13 19.4997 14.2 19.4897C16.309 19.3997 18.22 17.8297 19 15.4997C18.46 13.8697 17.32 12.5997 16 11.9597C15.38 11.6597 14.7 11.4997 14 11.4997C11.809 11.4997 9.8 13.0997 9 15.4997C9.25 16.2497 9.67 16.9297 10.12 17.4997C11.11 18.7497 12.5 19.4997 14 19.4997ZM7.74 17.4997C7.45 16.9697 7.22 16.3897 7.04 15.7797C6.99 15.5997 6.99 15.3997 7.04 15.2197C8.03 11.7997 10.82 9.49969 14 9.49969V6.49969H5V17.4997H7.74ZM16 9.82969C18.309 10.5497 20.179 12.5397 20.96 15.2197C21.01 15.3997 21.01 15.5997 20.96 15.7797C19.97 19.1997 17.179 21.4997 14 21.4997C12.2 21.4997 10.519 20.7597 9.23 19.4997H5C3.9 19.4997 3 18.5997 3 17.4997V6.49969C3 5.39969 3.9 4.49969 5 4.49969H14C15.099 4.49969 16 5.39969 16 6.49969V9.82969ZM11.9998 15.5C11.9998 14.396 12.8958 13.5 13.9998 13.5C15.1038 13.5 15.9998 14.396 15.9998 15.5C15.9998 16.604 15.1038 17.5 13.9998 17.5C12.8958 17.5 11.9998 16.604 11.9998 15.5Z" fill="#000624"/>
</svg>
