<svg width="24" height="25" viewBox="0 0 24 25" fill="none" xmlns="http://www.w3.org/2000/svg">
<path fill-rule="evenodd" clip-rule="evenodd" d="M10.9999 8.28658L11.7129 7.57358C13.1499 6.13758 15.4879 6.13758 16.9259 7.57358C17.6189 8.26658 17.9999 9.19258 17.9999 10.1806C17.9999 11.1686 17.6189 12.0946 16.9259 12.7866L16.2129 13.4996L17.6269 14.9136L18.3399 14.2016C19.4099 13.1306 19.9999 11.7036 19.9999 10.1806C19.9999 8.65758 19.4099 7.22958 18.3399 6.15958C16.1229 3.94258 12.5159 3.94258 10.2989 6.15958L9.5859 6.87258L10.9999 8.28658ZM12.287 17.4233C10.85 18.8603 8.512 18.8603 7.074 17.4233C6.381 16.7303 6 15.8043 6 14.8173C6 13.8283 6.381 12.9023 7.074 12.2103L8.157 11.1263L10.062 13.0313L8.266 14.8283L9.681 16.2423L11.476 14.4453L13.371 16.3393L12.287 17.4233ZM18.282 18.4223L6.076 6.21628L4.662 7.63028L6.743 9.71228L5.66 10.7963C4.59 11.8663 4 13.2943 4 14.8173C4 16.3393 4.59 17.7673 5.66 18.8373C7.877 21.0543 11.484 21.0543 13.701 18.8373L14.785 17.7533L16.868 19.8363L18.282 18.4223ZM14.3193 8.77498L15.7333 10.189L14.3183 11.605L12.9043 10.19L14.3193 8.77498Z" fill="#000624"/>
</svg>
