<svg width="24" height="25" viewBox="0 0 24 25" fill="none" xmlns="http://www.w3.org/2000/svg">
<path fill-rule="evenodd" clip-rule="evenodd" d="M6.66889 18.5L6.31489 16.5H17.6899L17.3369 18.5H6.66889ZM8.68689 11.066L11.9999 6.66897L15.3139 11.066L18.9219 9.51997L18.0429 14.5H5.99789C5.98489 14.5 5.97489 14.507 5.96189 14.507L5.07889 9.52097L8.68689 11.066ZM20.3389 7.73197C19.8369 7.33397 19.1559 7.24297 18.5679 7.49597L15.9679 8.60997L13.3939 5.19397C12.7279 4.31197 11.2729 4.31197 10.6069 5.19397L8.03189 8.60997L5.43189 7.49597C4.84289 7.24297 4.16189 7.33397 3.66089 7.73197C3.15789 8.13197 2.91489 8.77197 3.02689 9.40397L4.70089 18.854C4.86989 19.808 5.69489 20.5 6.66289 20.5H17.3369C18.3049 20.5 19.1299 19.808 19.2989 18.854L20.9729 9.40497C21.0849 8.77197 20.8419 8.13197 20.3389 7.73197Z" fill="#000624"/>
</svg>
