<svg width="20" height="20" viewBox="0 0 20 20" fill="none" xmlns="http://www.w3.org/2000/svg">
<g id="Icons / Rich Text / Bold">
<path id="Combined Shape" fill-rule="evenodd" clip-rule="evenodd" d="M11.5 15H6.5V11H10.5H11.5C12.603 11 13.5 11.897 13.5 13C13.5 14.103 12.603 15 11.5 15ZM6.5 5H10.5C11.603 5 12.5 5.897 12.5 7C12.5 8.103 11.603 9 10.5 9H6.5V5ZM13.535 9.575C14.128 8.877 14.5 7.985 14.5 7C14.5 4.794 12.706 3 10.5 3H4.5V17H11.5C13.706 17 15.5 15.206 15.5 13C15.5 11.54 14.706 10.274 13.535 9.575Z" fill="#000624"/>
</g>
</svg>
