<svg width="24" height="24" viewBox="0 0 24 24" fill="none" xmlns="http://www.w3.org/2000/svg">
<g id="Icons / Rich Text / Change Capitalization">
<path id="Combined Shape" fill-rule="evenodd" clip-rule="evenodd" d="M7.56712 7.79903L5.49812 13.344H9.63912L7.56712 7.79903ZM1.49512 18.353L6.34712 5.35303H8.78812L13.6441 18.353H11.5101L10.3851 15.343H4.75212L3.62812 18.353H1.49512ZM19.5819 16.4889C20.0039 16.1989 20.3159 15.8069 20.5079 15.3269V14.1359H18.5879C17.9069 14.1359 17.3749 14.2669 17.0039 14.5269C16.6459 14.7789 16.4719 15.1209 16.4719 15.5719C16.4719 15.9819 16.6099 16.3039 16.8939 16.5549C17.1769 16.8069 17.5729 16.9349 18.0699 16.9349C18.6439 16.9349 19.1529 16.7849 19.5819 16.4889ZM20.5859 9.33693C21.1869 9.65293 21.6619 10.0999 21.9989 10.6669C22.3349 11.2319 22.5049 11.9009 22.5049 12.6539V18.3599H20.5609V17.4799C20.2719 17.7909 19.9259 18.0479 19.5269 18.2449C18.9869 18.5119 18.3769 18.6469 17.7109 18.6469C17.0589 18.6469 16.4689 18.5169 15.9579 18.2629C15.4459 18.0069 15.0419 17.6469 14.7589 17.1939C14.4759 16.7399 14.3319 16.2179 14.3319 15.6429C14.3319 14.6759 14.7089 13.9069 15.4529 13.3599C16.1799 12.8229 17.1809 12.5499 18.4269 12.5499H20.5039C20.4759 11.9829 20.2889 11.5369 19.9369 11.1899C19.5569 10.8159 19.0129 10.6269 18.3199 10.6269C17.4389 10.6269 16.6339 11.0079 15.9279 11.7589L15.8139 11.8809L14.5559 10.5359L14.6659 10.4289C15.7409 9.38993 17.0189 8.86293 18.4629 8.86293C19.2719 8.86293 19.9869 9.02193 20.5859 9.33693Z" fill="#000624"/>
</g>
</svg>
