<svg width="24" height="24" viewBox="0 0 24 24" fill="none" xmlns="http://www.w3.org/2000/svg">
<g id="Icons / Rich Text / Lowercase">
<path id="Combined Shape" fill-rule="evenodd" clip-rule="evenodd" d="M9.09006 13.572V12.381H7.17106C6.49006 12.381 5.95806 12.513 5.58706 12.773C5.22906 13.024 5.05506 13.366 5.05506 13.817C5.05506 14.228 5.19306 14.549 5.47606 14.8C5.76006 15.053 6.15506 15.181 6.65206 15.181C7.22506 15.181 7.73506 15.031 8.16506 14.735C8.58806 14.444 8.89906 14.053 9.09006 13.572ZM7.04606 7.10797C7.85406 7.10797 8.56806 7.26797 9.16906 7.58197C9.77006 7.89897 10.2451 8.34697 10.5821 8.91297C10.9171 9.47797 11.0871 10.147 11.0871 10.899V16.606H9.14406V15.726C8.85506 16.036 8.50806 16.293 8.10906 16.49C7.57006 16.757 6.96006 16.892 6.29406 16.892C5.64206 16.892 5.05206 16.763 4.54106 16.508C4.02806 16.253 3.62406 15.893 3.34106 15.439C3.05806 14.985 2.91406 14.464 2.91406 13.889C2.91406 12.921 3.29106 12.152 4.03506 11.605C4.76306 11.068 5.76406 10.796 7.01006 10.796H9.08606C9.05706 10.235 8.86606 9.77797 8.52006 9.43597C8.14006 9.06197 7.59606 8.87197 6.90206 8.87197C6.02206 8.87197 5.21706 9.25297 4.51006 10.004L4.39606 10.126L3.13806 8.78097L3.24806 8.67397C4.32306 7.63497 5.60206 7.10797 7.04606 7.10797ZM19.0891 13.572V12.381H17.1691C16.4891 12.381 15.9571 12.513 15.5861 12.773C15.2281 13.025 15.0531 13.366 15.0531 13.817C15.0531 14.228 15.1911 14.549 15.4751 14.8C15.7591 15.053 16.1541 15.181 16.6511 15.181C17.2251 15.181 17.7341 15.031 18.1631 14.735C18.5861 14.443 18.8981 14.052 19.0891 13.572ZM19.1671 7.58197C19.7691 7.89897 20.2441 8.34697 20.5801 8.91297C20.9161 9.47797 21.0861 10.146 21.0861 10.899V16.606H19.1421V15.726C18.8541 16.037 18.5071 16.293 18.1081 16.49C17.5681 16.757 16.9581 16.892 16.2931 16.892C15.6411 16.892 15.0511 16.763 14.5391 16.508C14.0271 16.253 13.6231 15.893 13.3401 15.439C13.0571 14.985 12.9131 14.464 12.9131 13.889C12.9131 12.921 13.2901 12.152 14.0341 11.605C14.7621 11.068 15.7631 10.796 17.0091 10.796H19.0851C19.0561 10.235 18.8651 9.77797 18.5191 9.43597C18.1391 9.06197 17.5951 8.87197 16.9011 8.87197C16.0201 8.87197 15.2151 9.25297 14.5091 10.004L14.3951 10.126L13.1371 8.78097L13.2471 8.67397C14.3221 7.63497 15.6001 7.10797 17.0441 7.10797C17.8531 7.10797 18.5681 7.26797 19.1671 7.58197Z" fill="#000624"/>
</g>
</svg>
