<svg width="20" height="20" viewBox="0 0 20 20" fill="none" xmlns="http://www.w3.org/2000/svg">
<g id="Icons / Rich Text / Outline Color">
<path id="Combined Shape" fill-rule="evenodd" clip-rule="evenodd" d="M11.2616 3.00045L8.73559 3.00345L5.00059 13.0005H7.01659L7.76659 10.9965L12.2336 10.9975L12.9826 13.0005H15.0006L11.2616 3.00045ZM7.71159 14.0005H7.01659H5.00059H3.55859L4.06359 12.6505L7.79859 2.65345L8.04159 2.00445L8.73459 2.00345L11.2596 2.00045L11.9556 1.99945L12.1986 2.65045L15.9366 12.6505L16.4416 14.0005H15.0006H12.9826H12.2886L12.0456 13.3505L11.5396 11.9975L8.46059 11.9965L7.95459 13.3505L7.71159 14.0005ZM10.0002 4.99985L8.50019 8.99985H11.5002L10.0002 4.99985ZM16.0002 18.0005V16.0006H4.00019V18.0005H16.0002Z" fill="#000624"/>
</g>
</svg>
