<svg width="20" height="20" viewBox="0 0 20 20" fill="none" xmlns="http://www.w3.org/2000/svg">
<g id="Icons / Rich Text / Strike Through">
<path id="Combined Shape" fill-rule="evenodd" clip-rule="evenodd" d="M9.997 8.64718C10.65 8.74318 11.217 8.86718 11.743 9.00518H18V11.0052H2V9.00518H5.329C4.893 8.47918 4.673 7.82318 4.673 7.04718C4.673 5.81718 5.159 4.82118 6.117 4.09018C7.063 3.36618 8.3 3.00018 9.79 3.00018C10.889 3.00018 11.888 3.21618 12.758 3.64318C13.625 4.06818 14.407 4.67718 15.081 5.45718L15.171 5.56118L13.645 7.17818L13.536 7.03418C13.062 6.40818 12.51 5.90718 11.895 5.54518C11.285 5.18518 10.577 5.00318 9.79 5.00318C8.972 5.00318 8.3 5.19118 7.789 5.56318C7.287 5.92718 7.042 6.37918 7.042 6.94218C7.042 7.37818 7.241 7.71718 7.65 7.97618C8.083 8.25118 8.873 8.47618 9.997 8.64718ZM12.9311 12.7968C12.9311 12.4908 12.8461 12.2298 12.6951 11.9998H15.2481C15.2961 12.2428 15.3271 12.4968 15.3271 12.7698C15.3271 13.6008 15.0881 14.3478 14.6171 14.9898C14.1511 15.6268 13.5021 16.1278 12.6861 16.4778C11.8781 16.8248 10.9471 16.9998 9.9211 16.9998C8.6501 16.9998 7.5391 16.7798 6.6151 16.3448C5.6951 15.9118 4.8621 15.3078 4.1391 14.5478L4.0401 14.4428L5.5611 12.8298L5.6721 12.9578C6.2141 13.5848 6.8441 14.0868 7.5481 14.4508C8.2441 14.8128 9.0431 14.9958 9.9211 14.9958C10.8231 14.9958 11.5621 14.7858 12.1171 14.3728C12.6651 13.9638 12.9311 13.4478 12.9311 12.7968Z" fill="#000624"/>
</g>
</svg>
