<svg width="20" height="20" viewBox="0 0 20 20" fill="none" xmlns="http://www.w3.org/2000/svg">
<g id="Icons / Rich Text / Text Highlight 3" clip-path="url(#clip0_10_2732)">
<path id="Combined Shape" fill-rule="evenodd" clip-rule="evenodd" d="M14.223 17.663C14.122 17.625 14.024 17.586 13.922 17.539C13.753 17.461 13.592 17.371 13.439 17.278C13.023 17.029 12.65 16.725 12.329 16.378C12.281 16.326 12.237 16.271 12.193 16.215L12.16 16.175C11.98 15.958 11.821 15.729 11.686 15.496C11.629 15.398 11.576 15.301 11.527 15.202C11.494 15.137 11.415 14.989 11.415 14.989L10.59 13.012H6.38002L5.55602 14.989H3.38902L7.54802 5.012H9.41902L11.606 10.254C12.434 8.331 13.962 6.515 15.221 5.166L15.265 5.119L15.999 4.348V4C15.999 2.896 15.104 2 13.999 2H1.99902C0.895023 2 -0.000976562 2.896 -0.000976562 4V16C-0.000976562 17.105 0.895023 18 1.99902 18H13.999C14.28 18 14.545 17.942 14.787 17.838C14.588 17.788 14.396 17.73 14.223 17.663ZM7.21422 11.0116H9.75522L8.48522 7.9646L7.21422 11.0116ZM15.9976 5.82574L16.7186 6.57274C17.0646 6.93174 20.0996 10.1657 19.9976 12.9757C19.9976 15.1807 18.2036 16.9757 15.9976 16.9757C13.7926 16.9757 11.9976 15.1807 11.9986 13.0107C11.8976 10.1657 14.9316 6.93174 15.2786 6.57274L15.9976 5.82574ZM18.9979 12.975C19.0879 10.472 15.9979 7.26703 15.9979 7.26703C15.9979 7.26703 12.9089 10.472 12.9979 12.975C12.9979 14.632 14.3419 15.975 15.9979 15.975C17.6549 15.975 18.9979 14.632 18.9979 12.975Z" fill="#000624"/>
</g>
<defs>
<clipPath id="clip0_10_2732">
<rect width="20" height="20" fill="white"/>
</clipPath>
</defs>
</svg>
