<svg width="20" height="20" viewBox="0 0 20 20" fill="none" xmlns="http://www.w3.org/2000/svg">
<g id="Icons / Rich Text / Text Color 3">
<path id="Combined Shape" fill-rule="evenodd" clip-rule="evenodd" d="M7.1399 5.46888L5.0659 10.9999H9.2149L7.1399 5.46888ZM8.3589 2.99988L11.0119 10.0729C10.6009 10.9759 10.3269 11.9039 10.3269 12.8229V12.9999H4.3159L2.8149 16.9999H0.670898L5.9199 2.99988H8.3589ZM15.3257 5.8501L16.0457 6.5971C16.3927 6.9561 19.4267 10.1901 19.3257 13.0001C19.3257 15.2051 17.5307 17.0001 15.3257 17.0001C13.1207 17.0001 11.3257 15.2051 11.3267 13.0351C11.2257 10.1901 14.2597 6.9561 14.6067 6.5971L15.3257 5.8501ZM18.326 12.9999C18.416 10.4969 15.326 7.29089 15.326 7.29089C15.326 7.29089 12.236 10.4969 12.326 12.9999C12.326 14.6569 13.67 15.9999 15.326 15.9999C16.982 15.9999 18.326 14.6569 18.326 12.9999Z" fill="#000624"/>
</g>
</svg>
