<svg width="20" height="20" viewBox="0 0 20 20" fill="none" xmlns="http://www.w3.org/2000/svg">
<g id="Icons / Rich Text / Text Effects">
<path id="Combined Shape" fill-rule="evenodd" clip-rule="evenodd" d="M6 8.00012H4V6.00012H2V4.00012H4V2.00012H6V4.00012H8V6.00012H6V8.00012ZM12.9402 8.05992L13.5332 8.65292L15.5862 6.59992L14.4002 5.41392L12.3472 7.46692L12.9402 8.05992ZM5.4142 14.3999L6.5992 15.5859L12.1192 10.0669L11.5262 9.47392L10.9332 8.88092L5.4142 14.3999ZM15.1072 3.29292L17.7072 5.89292C18.0972 6.28392 18.0972 6.91692 17.7072 7.30692L7.3062 17.7069C7.1192 17.8949 6.8652 17.9999 6.5992 17.9999C6.3342 17.9999 6.0802 17.8949 5.8922 17.7069L3.2932 15.1069C2.9022 14.7159 2.9022 14.0839 3.2932 13.6929L13.6932 3.29292C13.8812 3.10592 14.1352 2.99992 14.4002 2.99992C14.6662 2.99992 14.9202 3.10592 15.1072 3.29292Z" fill="#000624"/>
</g>
</svg>
