<svg width="20" height="20" viewBox="0 0 20 20" fill="none" xmlns="http://www.w3.org/2000/svg">
<g id="Icons / Rich Text / Text Color">
<path id="Combined Shape" fill-rule="evenodd" clip-rule="evenodd" d="M16.6606 8.83176C16.5556 8.87676 16.4426 8.90776 16.3296 8.93476C16.3189 8.93744 16.3085 8.94112 16.2982 8.94481C16.2853 8.94939 16.2724 8.95399 16.2586 8.95676C16.1819 8.97291 16.1019 8.97797 16.0223 8.98301C16.0034 8.98421 15.9845 8.98541 15.9656 8.98676C15.9461 8.988 15.927 8.99046 15.9081 8.9929C15.8815 8.99634 15.8551 8.99976 15.8276 8.99976H15.8266H15.8256C15.3706 8.99976 14.9496 8.85776 14.6026 8.61276C14.0486 8.22576 13.6836 7.58476 13.6836 6.85676C13.6836 6.84938 13.6848 6.84224 13.686 6.83499C13.6873 6.8275 13.6886 6.81989 13.6886 6.81176C13.6886 6.80326 13.6873 6.79526 13.6861 6.78726C13.6848 6.77926 13.6836 6.77126 13.6836 6.76276C13.6836 5.29512 15.2786 3.58589 15.8024 3.02461C15.8104 3.01605 15.8181 3.00777 15.8256 2.99976L15.834 3.00875C16.3016 3.51098 17.7059 5.01917 17.9226 6.41276C17.9275 6.43371 17.9294 6.45543 17.9313 6.4772C17.9325 6.49075 17.9337 6.50433 17.9356 6.51776C17.939 6.54841 17.9441 6.5792 17.9493 6.60992C17.958 6.66139 17.9666 6.71266 17.9666 6.76276C17.9666 6.76764 17.9659 6.77252 17.9651 6.77751C17.9644 6.78276 17.9636 6.78812 17.9636 6.79376C17.9641 6.80395 17.9656 6.81371 17.9671 6.82334C17.9689 6.8345 17.9706 6.84549 17.9706 6.85676C17.9706 7.74576 17.4306 8.50676 16.6606 8.83176ZM8.4983 5.46918L6.4233 11.0002H10.5733L8.4983 5.46918ZM7.2783 3.00018H9.7163L14.9703 17.0002H12.8253L11.3243 13.0002H5.6733L4.1733 17.0002H2.0293L7.2783 3.00018Z" fill="#000624"/>
</g>
</svg>
