<svg width="20" height="20" viewBox="0 0 20 20" fill="none" xmlns="http://www.w3.org/2000/svg">
<g id="Icons / Rich Text / Text Highlight 2">
<path id="Combined Shape" fill-rule="evenodd" clip-rule="evenodd" d="M12.172 4.91418L7 10.0852V11.5002H8.414L13.586 6.32818L12.172 4.91418ZM9.535 13.2072C9.348 13.3942 9.094 13.5002 8.828 13.5002H6H5V12.5002V9.67118C5 9.40618 5.105 9.15118 5.293 8.96418L11.465 2.79318C11.652 2.60518 11.906 2.50018 12.172 2.50018C12.437 2.50018 12.691 2.60518 12.879 2.79318L15.707 5.62118C16.098 6.01218 16.098 6.64518 15.707 7.03518L9.535 13.2072ZM16 17.4998H4V15.4998H16V17.4998Z" fill="#000624"/>
</g>
</svg>
