<svg width="24" height="24" viewBox="0 0 24 24" fill="none" xmlns="http://www.w3.org/2000/svg">
<path fill-rule="evenodd" clip-rule="evenodd" d="M21.5 21C21.5 21.275 21.276 21.5 21 21.5H17.5V2.5H21C21.276 2.5 21.5 2.725 21.5 3V21ZM12.5 21.5H16.5V2.5H12.5V21.5ZM7.5 21.5H11.5V2.5H7.5V21.5ZM3 21.5C2.724 21.5 2.5 21.275 2.5 21V3C2.5 2.725 2.724 2.5 3 2.5H6.5V21.5H3ZM21 1.5H17.5H16.5H12.5H11.5H7.5H6.5H3C2.173 1.5 1.5 2.173 1.5 3V21C1.5 21.827 2.173 22.5 3 22.5H6.5H7.5H11.5H12.5H16.5H17.5H21C21.827 22.5 22.5 21.827 22.5 21V3C22.5 2.173 21.827 1.5 21 1.5Z" fill="#000624"/>
</svg>
