<svg width="24" height="24" viewBox="0 0 24 24" fill="none" xmlns="http://www.w3.org/2000/svg">
<path fill-rule="evenodd" clip-rule="evenodd" d="M15.5 11.5V2.5H21C21.276 2.5 21.5 2.725 21.5 3V11.5H15.5ZM21.5 21C21.5 21.275 21.276 21.5 21 21.5H15.5V12.5H21.5V21ZM9.5 21.5H14.5V12.5H9.5V21.5ZM3 21.5C2.724 21.5 2.5 21.275 2.5 21V12.5H8.5V21.5H3ZM2.5 3C2.5 2.725 2.724 2.5 3 2.5H8.5V11.5H2.5V3ZM9.5 11.5H14.5V2.5H9.5V11.5ZM21 1.5H15.5H14.5H9.5H8.5H3C2.173 1.5 1.5 2.173 1.5 3V11.5V12.5V21C1.5 21.827 2.173 22.5 3 22.5H8.5H9.5H14.5H15.5H21C21.827 22.5 22.5 21.827 22.5 21V12.5V11.5V3C22.5 2.173 21.827 1.5 21 1.5Z" fill="#000624"/>
</svg>
