<svg width="24" height="24" viewBox="0 0 24 24" fill="none" xmlns="http://www.w3.org/2000/svg">
<path fill-rule="evenodd" clip-rule="evenodd" d="M15.5 6.5V2.5H21C21.276 2.5 21.5 2.725 21.5 3V6.5H15.5ZM15.5 11.5H21.5V7.5H15.5V11.5ZM15.5 15.5H21.5V12.5H15.5V15.5ZM9.5 15.5H14.5V12.5H9.5V15.5ZM2.5 15.5H8.5V12.5H2.5V15.5ZM2.5 11.5H8.5V7.5H2.5V11.5ZM2.5 3C2.5 2.725 2.724 2.5 3 2.5H8.5V6.5H2.5V3ZM9.5 11.5H14.5V7.5H9.5V11.5ZM9.5 6.5H14.5V2.5H9.5V6.5ZM21 1.5H15.5H14.5H9.5H8.5H3C2.173 1.5 1.5 2.173 1.5 3V6.5V7.5V11.5V12.5V15.5V16.5V18.5H2.5V16.5H8.5V18.5H9.5V16.5H14.5V18.5H15.5V16.5H21.5V18.5H22.5V16.5V15.5V12.5V11.5V7.5V6.5V3C22.5 2.173 21.827 1.5 21 1.5ZM21.5 22.5H22.5V20.5H21.5V22.5ZM2.5 22.5H1.5V20.5H2.5V22.5ZM8.5 22.5H9.5V20.5H8.5V22.5ZM15.5 22.5H14.5V20.5H15.5V22.5Z" fill="#000624"/>
</svg>
