<svg width="24" height="24" viewBox="0 0 24 24" fill="none" xmlns="http://www.w3.org/2000/svg">
<path fill-rule="evenodd" clip-rule="evenodd" d="M17.5 2.5V6.5H21.5V3C21.5 2.725 21.276 2.5 21 2.5H17.5ZM21.5 11.5H17.5V7.5H21.5V11.5ZM21.5 15.5H17.5V12.5H21.5V15.5ZM16.5 15.5H12.5V12.5H16.5V15.5ZM11.5 15.5H7.5V12.5H11.5V15.5ZM6.5 15.5H2.5V12.5H6.5V15.5ZM6.5 11.5H2.5V7.5H6.5V11.5ZM3 2.5C2.724 2.5 2.5 2.725 2.5 3V6.5H6.5V2.5H3ZM11.5 6.5H7.5V2.5H11.5V6.5ZM11.5 11.5H7.5V7.5H11.5V11.5ZM16.5 11.5H12.5V7.5H16.5V11.5ZM16.5 6.5H12.5V2.5H16.5V6.5ZM17.5 1.5H21C21.827 1.5 22.5 2.173 22.5 3V6.5V7.5V11.5V12.5V15.5V16.5V18.5H21.5V16.5H17.5V18.5H16.5V16.5H12.5V18.5H11.5V16.5H7.5V18.5H6.5V16.5H2.5V18.5H1.5V16.5V15.5V12.5V11.5V7.5V6.5V3C1.5 2.173 2.173 1.5 3 1.5H6.5H7.5H11.5H12.5H16.5H17.5ZM7.5 22.5H6.5V20.5H7.5V22.5ZM11.5 22.5H12.5V20.5H11.5V22.5ZM17.5 22.5H16.5V20.5H17.5V22.5ZM21.5 22.5H22.5V20.5H21.5V22.5ZM2.5 22.5H1.5V20.5H2.5V22.5Z" fill="#000624"/>
</svg>
