<svg width="24" height="24" viewBox="0 0 24 24" fill="none" xmlns="http://www.w3.org/2000/svg">
<path fill-rule="evenodd" clip-rule="evenodd" d="M17.5 6.5H21.5V3C21.5 2.725 21.276 2.5 21 2.5H17.5V6.5ZM16.5 6.5H12.5V2.5H16.5V6.5ZM11.5 6.5H7.5V2.5H11.5V6.5ZM6.5 11.5H2.5V7.5H6.5V11.5ZM6.5 16.5H2.5V12.5H6.5V16.5ZM3 21.5H6.5V17.5H2.5V21C2.5 21.275 2.724 21.5 3 21.5ZM3 2.5C2.724 2.5 2.5 2.725 2.5 3V6.5H6.5V2.5H3ZM17.5 1.5H21C21.827 1.5 22.5 2.173 22.5 3V7C22.5 7.276 22.276 7.5 22 7.5H17.5H16.5H12.5H11.5H7.5V11.5V12.5V16.5V17.5V22C7.5 22.276 7.276 22.5 7 22.5H3C2.173 22.5 1.5 21.827 1.5 21V17.5V16.5V12.5V11.5V3C1.5 2.173 2.173 1.5 3 1.5H11.5H12.5H16.5H17.5ZM21.5 9.5V12.5H22.5V9.5H21.5ZM22.5 14.5V17.5H21.5V14.5H22.5ZM21.5 21C21.5 21.275 21.276 21.5 21 21.5H19.5V22.5H21C21.827 22.5 22.5 21.827 22.5 21V19.5H21.5V21ZM12.5 22.5H9.5V21.5H12.5V22.5ZM17.5 22.5H14.5V21.5H17.5V22.5Z" fill="#000624"/>
</svg>
