<svg width="24" height="24" viewBox="0 0 24 24" fill="none" xmlns="http://www.w3.org/2000/svg">
<path fill-rule="evenodd" clip-rule="evenodd" d="M20.499 2.5005H22.5V1.4995H20.499V2.5005ZM20.499 22.5005H22.5V21.5005H20.499V22.5005ZM15.499 21.5005H11.499V2.5005H15.499V21.5005ZM10.499 21.5005H6.49902V2.5005H10.499V21.5005ZM2.49902 21.0005C2.49902 21.2755 2.72302 21.5005 2.99902 21.5005H5.49902V2.5005H2.99902C2.72302 2.5005 2.49902 2.7255 2.49902 3.0005V21.0005ZM11.499 1.5005H15.499H16.499H18.499V2.5005H16.499V21.5005H18.499V22.5005H16.499H15.499H11.499H10.499H6.49902H5.49902H2.99902C2.17202 22.5005 1.49902 21.8275 1.49902 21.0005V3.0005C1.49902 2.1735 2.17202 1.5005 2.99902 1.5005H5.49902H6.49902H10.499H11.499Z" fill="#000624"/>
</svg>
