<svg width="24" height="24" viewBox="0 0 24 24" fill="none" xmlns="http://www.w3.org/2000/svg">
<path fill-rule="evenodd" clip-rule="evenodd" d="M21.5 20.4995V22.5005H22.501V20.4995H21.5ZM1.49998 20.4995V22.5005H2.49998V20.4995H1.49998ZM2.49998 15.4995V11.4995L21.5 11.4995L21.5 15.4995L2.49998 15.4995ZM2.49998 10.4995V6.4995L21.5 6.4995V10.4995L2.49998 10.4995ZM2.99998 2.4995C2.72498 2.4995 2.49998 2.7235 2.49998 2.9995V5.4995L21.5 5.4995V2.9995C21.5 2.7235 21.275 2.4995 21 2.4995L2.99998 2.4995ZM22.5 11.4995V15.4995V16.4995V18.4995H21.5V16.4995L2.49998 16.4995V18.4995H1.49998V16.4995V15.4995V11.4995L1.49998 10.4995V6.4995V5.4995V2.9995C1.49998 2.1725 2.17298 1.4995 2.99998 1.4995L21 1.4995C21.827 1.4995 22.5 2.1725 22.5 2.9995V5.4995V6.4995V10.4995L22.5 11.4995Z" fill="#000624"/>
</svg>
