<svg width="24" height="24" viewBox="0 0 24 24" fill="none" xmlns="http://www.w3.org/2000/svg">
<path fill-rule="evenodd" clip-rule="evenodd" d="M15.5 11.5H12.5V2.5H15.5V11.5ZM15.5 21.5H12.5V12.5H15.5V21.5ZM11.5 21.5H7.5V12.5H11.5V21.5ZM2.5 21C2.5 21.275 2.724 21.5 3 21.5H6.5V12.5H2.5V21ZM3 2.5C2.724 2.5 2.5 2.725 2.5 3V11.5H6.5V2.5H3ZM11.5 11.5H7.5V2.5H11.5V11.5ZM12.5 1.5H15.5H16.5H18.5V2.5H16.5V11.5H18.5V12.5H16.5V21.5H18.5V22.5H16.5H15.5H12.5H11.5H7.5H6.5H3C2.173 22.5 1.5 21.827 1.5 21V12.5V11.5V3C1.5 2.173 2.173 1.5 3 1.5H6.5H7.5H11.5H12.5ZM22.5 2.5H20.5V1.5H22.5V2.5ZM20.5 22.5H22.5V21.5H20.5V22.5ZM22.5 12.5H20.5V11.5H22.5V12.5Z" fill="#000624"/>
</svg>
