<svg width="24" height="24" viewBox="0 0 24 24" fill="none" xmlns="http://www.w3.org/2000/svg">
<path fill-rule="evenodd" clip-rule="evenodd" d="M12.5 8.5H15.5V2.5H12.5V8.5ZM12.5 14.5H15.5V9.5H12.5V14.5ZM12.5 21.5H15.5V15.5H12.5V21.5ZM7.5 21.5H11.5V15.5H7.5V21.5ZM3 21.5C2.724 21.5 2.5 21.275 2.5 21V15.5H6.5V21.5H3ZM2.5 14.5H6.5V9.5H2.5V14.5ZM2.5 3C2.5 2.725 2.724 2.5 3 2.5H6.5V8.5H2.5V3ZM7.5 14.5H11.5V9.5H7.5V14.5ZM7.5 8.5H11.5V2.5H7.5V8.5ZM15.5 1.5H12.5H11.5H7.5H6.5H3C2.173 1.5 1.5 2.173 1.5 3V8.5V9.5V14.5V15.5V21C1.5 21.827 2.173 22.5 3 22.5H6.5H7.5H11.5H12.5H15.5H16.5H18.5V21.5H16.5V15.5H18.5V14.5H16.5V9.5H18.5V8.5H16.5V2.5H18.5V1.5H16.5H15.5ZM20.5 2.5H22.5V1.5H20.5V2.5ZM22.5 22.5H20.5V21.5H22.5V22.5ZM20.5 15.5H22.5V14.5H20.5V15.5ZM22.5 9.5H20.5V8.5H22.5V9.5Z" fill="#000624"/>
</svg>
