<svg width="24" height="24" viewBox="0 0 24 24" fill="none" xmlns="http://www.w3.org/2000/svg">
<path fill-rule="evenodd" clip-rule="evenodd" d="M15.499 6.5H12.499V2.5H15.499V6.5ZM15.499 11.5H12.499V7.5H15.499V11.5ZM15.499 16.5H12.499V12.5H15.499V16.5ZM15.499 21.5H12.499V17.5H15.499V21.5ZM11.499 21.5H7.49902V17.5H11.499V21.5ZM2.49902 21C2.49902 21.275 2.72302 21.5 2.99902 21.5H6.49902V17.5H2.49902V21ZM6.49902 16.5H2.49902V12.5H6.49902V16.5ZM6.49902 11.5H2.49902V7.5H6.49902V11.5ZM2.99902 2.5C2.72302 2.5 2.49902 2.725 2.49902 3V6.5H6.49902V2.5H2.99902ZM11.499 16.5H7.49902V12.5H11.499V16.5ZM11.499 11.5H7.49902V7.5H11.499V11.5ZM11.499 6.5H7.49902V2.5H11.499V6.5ZM12.499 1.5H15.499H16.499H18.499V2.5H16.499V6.5H18.499V7.5H16.499V11.5H18.499V12.5H16.499V16.5H18.499V17.5H16.499V21.5H18.499V22.5H16.499H15.499H12.499H11.499H7.49902H6.49902H2.99902C2.17202 22.5 1.49902 21.827 1.49902 21V17.5V16.5V12.5V11.5V7.5V6.5V3C1.49902 2.173 2.17202 1.5 2.99902 1.5H6.49902H7.49902H11.499H12.499ZM20.499 7.5H22.5V6.5H20.499V7.5ZM22.5 12.5H20.499V11.5H22.5V12.5ZM22.5 17.5H20.499V16.5H22.5V17.5ZM20.499 2.5H22.499V1.5H20.499V2.5ZM22.499 22.5H20.499V21.5H22.499V22.5Z" fill="#000624"/>
</svg>
