<svg width="30" height="30" viewBox="0 0 30 30" fill="none" xmlns="http://www.w3.org/2000/svg">
<path fill-rule="evenodd" clip-rule="evenodd" d="M19 22.9998V18.9998H23.001L23.002 22.9998H19ZM7 22.9998H17V18.9998H7V22.9998ZM7 10.9998H11V6.9998H7V10.9998ZM7 16.9998H23.001V12.9998H7V16.9998ZM13 10.9998H23V6.9998H13V10.9998ZM23 4.9998H13H11H7C5.897 4.9998 5 5.8968 5 6.9998V22.9998C5 24.1028 5.897 24.9998 7 24.9998H17H19H23C24.103 24.9998 25 24.1028 25 22.9998V6.9998C25 5.8968 24.103 4.9998 23 4.9998Z" fill="#000624"/>
</svg>
