<svg width="24" height="24" viewBox="0 0 24 24" fill="none" xmlns="http://www.w3.org/2000/svg">
<path fill-rule="evenodd" clip-rule="evenodd" d="M14.5474 9.8587L17.7874 7.4277C18.8714 6.6147 19.6134 5.4237 19.8864 4.1147C18.5764 4.3867 17.3874 5.1287 16.5744 6.2127L14.1424 9.4537L14.5474 9.8587ZM8.9314 9.9117L14.0914 15.0727L15.5124 13.6527L10.3524 8.4907L8.9314 9.9117ZM14.9744 5.0137C16.3894 3.1267 18.6414 1.9997 21.0004 1.9997C21.5534 1.9997 22.0004 2.4477 22.0004 2.9997C22.0004 5.3587 20.8744 7.6117 18.9874 9.0277L15.9754 11.2867L16.9274 12.2387C17.3054 12.6157 17.5134 13.1187 17.5134 13.6547C17.5124 14.1887 17.3034 14.6907 16.9254 15.0677L15.5054 16.4867L18.5814 19.5627L17.1674 20.9767L3.0244 6.8337L4.4384 5.4197L7.5164 8.4977L8.9384 7.0767C9.7184 6.2977 10.9864 6.2987 11.7664 7.0757L12.7154 8.0257L14.9744 5.0137ZM9.574 19.5864L11.261 17.9004L12.675 19.3144L10.281 21.7074C10.085 21.9024 9.829 22.0004 9.574 22.0004C9.318 22.0004 9.062 21.9024 8.866 21.7074L2.293 15.1314C2.106 14.9444 2 14.6894 2 14.4244C2 14.1594 2.106 13.9054 2.293 13.7174L4.687 11.3264L6.101 12.7404L4.414 14.4244L6.747 16.7574L8.437 15.0704L9.85 16.4864L8.161 18.1714L9.574 19.5864Z" fill="#000624"/>
</svg>
