<svg width="24" height="24" viewBox="0 0 24 24" fill="none" xmlns="http://www.w3.org/2000/svg">
<path fill-rule="evenodd" clip-rule="evenodd" d="M17.787 7.4277L14.547 9.8587L14.142 9.4537L16.573 6.2137C17.387 5.1297 18.576 4.3867 19.885 4.1147C19.613 5.4237 18.871 6.6147 17.787 7.4277ZM14.092 15.0717L8.933 9.9097L10.352 8.4917L15.512 13.6537L14.092 15.0717ZM9.574 19.5857L8.161 18.1717L9.85 16.4867L8.437 15.0707L6.747 16.7577L4.414 14.4247L7.517 11.3237L12.678 16.4857L9.574 19.5857ZM21 1.9997C18.641 1.9997 16.388 3.1267 14.974 5.0147L12.715 8.0267L11.766 7.0777C10.987 6.2987 9.72 6.2977 8.938 7.0767L2.293 13.7177C2.105 13.9057 2 14.1587 2 14.4247C2 14.6897 2.105 14.9447 2.293 15.1317L8.867 21.7067C9.062 21.9027 9.318 21.9997 9.574 21.9997C9.83 21.9997 10.086 21.9027 10.281 21.7067L16.926 15.0677C17.705 14.2877 17.706 13.0197 16.927 12.2387L15.975 11.2857L18.986 9.0277C20.874 7.6127 22 5.3587 22 2.9997C22 2.4477 21.553 1.9997 21 1.9997Z" fill="#000624"/>
</svg>
