<svg width="30" height="30" viewBox="0 0 30 30" fill="none" xmlns="http://www.w3.org/2000/svg">
<path fill-rule="evenodd" clip-rule="evenodd" d="M17 23H23V16.001H17V23ZM7 7L15 6.999V23H7V7ZM17 14.001H23V6.999H17V14.001ZM23 5H7C5.897 5 5 5.897 5 7V23C5 24.102 5.897 25 7 25H23C24.103 25 25 24.102 25 23V7C25 5.897 24.103 5 23 5ZM9 18.001V20.001H13V18.001H9ZM13 12.0005C13 13.1035 12.103 14.0005 11 14.0005C9.897 14.0005 9 13.1035 9 12.0005C9 10.8975 9.897 10.0005 11 10.0005C12.103 10.0005 13 10.8975 13 12.0005Z" fill="#000624"/>
</svg>
