<svg width="12" height="12" viewBox="0 0 12 12" fill="none" xmlns="http://www.w3.org/2000/svg">
<path fill-rule="evenodd" clip-rule="evenodd" d="M9.535 2.4648C8.591 1.5208 7.336 0.9998 6 0.9998C4.665 0.9998 3.409 1.5208 2.465 2.4648L1 0.9998V4.9998H5L3.172 3.1718C4.683 1.6598 7.317 1.6598 8.828 3.1718C9.584 3.9278 10 4.9318 10 5.9998C10 7.0688 9.584 8.0718 8.828 8.8278C7.316 10.3398 4.682 10.3398 3.171 8.8278L2.464 9.5348C3.408 10.4798 4.664 10.9998 6 10.9998C7.336 10.9998 8.591 10.4798 9.535 9.5348C10.479 8.5908 11 7.3358 11 5.9998C11 4.6638 10.479 3.4088 9.535 2.4648Z" fill="#000624"/>
</svg>
