<svg width="18" height="18" viewBox="0 0 18 18" fill="none" xmlns="http://www.w3.org/2000/svg">
<path fill-rule="evenodd" clip-rule="evenodd" d="M6.99926 7.0013H4.99326V4.9953H6.99926V7.0013ZM4.99326 3.9953H6.99926C7.55126 3.9953 7.99926 4.4433 7.99926 4.9953V7.0013C7.99926 7.5523 7.55126 8.0013 6.99926 8.0013H4.99326C4.44126 8.0013 3.99326 7.5523 3.99326 7.0013V4.9953C3.99326 4.4433 4.44126 3.9953 4.99326 3.9953ZM13.0063 7.0013H10.9993V4.9953H13.0063V7.0013ZM10.9993 3.9953H13.0063C13.5583 3.9953 14.0063 4.4433 14.0063 4.9953V7.0013C14.0063 7.5523 13.5583 8.0013 13.0063 8.0013H10.9993C10.4473 8.0013 9.99926 7.5523 9.99926 7.0013V4.9953C9.99926 4.4433 10.4473 3.9953 10.9993 3.9953ZM6.99816 13.0047H4.99316V10.9977H6.99916L6.99816 13.0047ZM6.99916 9.9977H4.99316C4.44116 9.9977 3.99316 10.4457 3.99316 10.9977V13.0047C3.99316 13.5567 4.44116 14.0047 4.99316 14.0047H6.99916C7.55116 14.0047 7.99916 13.5567 7.99916 13.0047V10.9977C7.99916 10.4457 7.55116 9.9977 6.99916 9.9977ZM10.9991 13.0047H13.0051L13.0061 10.9977H10.9991V13.0047ZM10.9991 9.9977H13.0061C13.5581 9.9977 14.0061 10.4457 14.0061 10.9977V13.0047C14.0061 13.5567 13.5581 14.0047 13.0061 14.0047H10.9991C10.4471 14.0047 9.99906 13.5567 9.99906 13.0047V10.9977C9.99906 10.4457 10.4471 9.9977 10.9991 9.9977Z" fill="#000624"/>
</svg>
