<svg width="18" height="18" viewBox="0 0 18 18" fill="none" xmlns="http://www.w3.org/2000/svg">
<path fill-rule="evenodd" clip-rule="evenodd" d="M13.5632 13.0617C12.9762 13.6477 12.0262 13.6467 11.4412 13.0617C10.8562 12.4767 10.8562 11.5257 11.4412 10.9407C11.7342 10.6477 12.1182 10.5017 12.5022 10.5017C12.8862 10.5017 13.2702 10.6477 13.5632 10.9407C14.1472 11.5257 14.1472 12.4767 13.5632 13.0617ZM10.0553 11.4997H7.94525C7.85125 11.0357 7.62625 10.5907 7.26725 10.2317C7.23425 10.1987 7.19625 10.1757 7.16225 10.1457L8.20725 8.35571C8.46425 8.44171 8.73225 8.49771 9.00325 8.49771C9.27325 8.49771 9.54125 8.44671 9.80025 8.36071L10.8412 10.1447C10.8063 10.1757 10.7673 10.1997 10.7343 10.2337C10.3752 10.5927 10.1502 11.0357 10.0553 11.4997ZM6.56025 13.0597C5.97325 13.6457 5.02325 13.6447 4.43825 13.0597C3.85325 12.4747 3.85325 11.5237 4.43825 10.9387C4.73125 10.6457 5.11525 10.4997 5.50025 10.4997C5.88325 10.4997 6.26725 10.6457 6.56025 10.9387C7.14425 11.5237 7.14425 12.4747 6.56025 13.0597ZM7.98525 4.89571C8.27325 4.63071 8.63725 4.49971 9.00125 4.49971C9.40625 4.49971 9.80925 4.66271 10.1053 4.98271C10.6663 5.58971 10.6263 6.54071 10.0192 7.10271C9.41225 7.66171 8.46225 7.62471 7.89925 7.01571C7.62725 6.72071 7.48725 6.33871 7.50225 5.93871C7.51925 5.53871 7.69025 5.16771 7.98525 4.89571ZM14.2703 10.2337C13.5763 9.53971 12.5763 9.34971 11.7052 9.64171L10.6663 7.86171C10.6753 7.85271 10.6872 7.84671 10.6972 7.83771V7.83671C11.7102 6.90271 11.7743 5.31771 10.8393 4.30471C9.90525 3.29071 8.32025 3.22671 7.30725 4.16171C6.81625 4.61371 6.53125 5.23071 6.50325 5.89771C6.47725 6.56571 6.71125 7.20371 7.16525 7.69371C7.21925 7.75271 7.28425 7.79671 7.34325 7.85071L6.29825 9.64071C5.42525 9.34671 4.42425 9.53871 3.73125 10.2317C2.75625 11.2067 2.75625 12.7917 3.73125 13.7667C4.21825 14.2537 4.85925 14.4987 5.50025 14.4987C6.13925 14.4987 6.78025 14.2537 7.26725 13.7667C7.62625 13.4077 7.85025 12.9637 7.94525 12.4997H10.0542C10.1492 12.9647 10.3742 13.4087 10.7343 13.7687C11.2213 14.2557 11.8622 14.4997 12.5022 14.4997C13.1423 14.4997 13.7833 14.2557 14.2703 13.7687C15.2443 12.7937 15.2443 11.2077 14.2703 10.2337Z" fill="#000624"/>
</svg>
